<?xml version="1.0" encoding="utf-8" standalone="no"?>
<!DOCTYPE svg PUBLIC "-//W3C//DTD SVG 1.1//EN"
  "http://www.w3.org/Graphics/SVG/1.1/DTD/svg11.dtd">
<!-- Created with matplotlib (https://matplotlib.org/) -->
<svg height="265.69625pt" version="1.1" viewBox="0 0 386.38125 265.69625" width="386.38125pt" xmlns="http://www.w3.org/2000/svg" xmlns:xlink="http://www.w3.org/1999/xlink">
 <defs>
  <style type="text/css">
*{stroke-linecap:butt;stroke-linejoin:round;}
  </style>
 </defs>
 <g id="figure_1">
  <g id="patch_1">
   <path d="M 0 265.69625 
L 386.38125 265.69625 
L 386.38125 0 
L 0 0 
z
" style="fill:#ffffff;"/>
  </g>
  <g id="axes_1">
   <g id="patch_2">
    <path d="M 40.88125 228.14 
L 375.68125 228.14 
L 375.68125 10.7 
L 40.88125 10.7 
z
" style="fill:#ffffff;"/>
   </g>
   <g id="PolyCollection_1">
    <defs>
     <path d="M 55.244606 -58.651881 
L 54.417894 -58.651881 
L 54.282541 -59.967054 
L 54.11453 -61.282227 
L 53.909986 -62.5974 
L 53.665817 -63.912572 
L 53.380118 -65.227745 
L 53.05257 -66.542918 
L 52.684791 -67.858091 
L 52.280582 -69.173263 
L 51.846027 -70.488436 
L 51.389415 -71.803609 
L 50.920948 -73.118782 
L 50.452253 -74.433954 
L 49.995709 -75.749127 
L 49.563645 -77.0643 
L 49.167491 -78.379473 
L 48.816938 -79.694646 
L 48.519232 -81.009818 
L 48.278645 -82.324991 
L 48.096209 -83.640164 
L 47.969729 -84.955337 
L 47.894081 -86.270509 
L 47.861759 -87.585682 
L 47.863611 -88.900855 
L 47.889679 -90.216028 
L 47.930063 -91.5312 
L 47.975718 -92.846373 
L 48.019103 -94.161546 
L 48.054655 -95.476719 
L 48.079039 -96.791892 
L 48.091195 -98.107064 
L 48.092182 -99.422237 
L 48.084892 -100.73741 
L 48.07364 -102.052583 
L 48.063721 -103.367755 
L 48.060948 -104.682928 
L 48.071225 -105.998101 
L 48.100174 -107.313274 
L 48.15283 -108.628447 
L 48.233412 -109.943619 
L 48.345156 -111.258792 
L 48.49022 -112.573965 
L 48.669633 -113.889138 
L 48.883283 -115.20431 
L 49.12995 -116.519483 
L 49.407354 -117.834656 
L 49.712243 -119.149829 
L 50.040496 -120.465001 
L 50.387261 -121.780174 
L 50.747116 -123.095347 
L 51.114257 -124.41052 
L 51.482709 -125.725693 
L 51.84655 -127.040865 
L 52.200136 -128.356038 
L 52.538317 -129.671211 
L 52.856629 -130.986384 
L 53.151444 -132.301556 
L 53.420069 -133.616729 
L 53.66079 -134.931902 
L 53.872853 -136.247075 
L 54.056389 -137.562247 
L 54.212294 -138.87742 
L 54.342076 -140.192593 
L 54.447675 -141.507766 
L 54.531293 -142.822939 
L 54.595232 -144.138111 
L 54.641752 -145.453284 
L 54.672974 -146.768457 
L 54.690815 -148.08363 
L 54.696968 -149.398802 
L 54.692914 -150.713975 
L 54.679965 -152.029148 
L 54.65933 -153.344321 
L 54.632185 -154.659493 
L 54.599747 -155.974666 
L 54.563327 -157.289839 
L 54.524369 -158.605012 
L 54.484451 -159.920185 
L 54.445263 -161.235357 
L 54.408546 -162.55053 
L 54.37601 -163.865703 
L 54.349236 -165.180876 
L 54.329573 -166.496048 
L 54.318038 -167.811221 
L 54.315239 -169.126394 
L 54.321335 -170.441567 
L 54.336019 -171.75674 
L 54.35855 -173.071912 
L 54.387815 -174.387085 
L 54.422423 -175.702258 
L 54.460814 -177.017431 
L 54.501374 -178.332603 
L 54.542545 -179.647776 
L 54.582925 -180.962949 
L 54.621332 -182.278122 
L 54.656851 -183.593294 
L 54.688853 -184.908467 
L 54.716982 -186.22364 
L 54.741132 -187.538813 
L 54.761401 -188.853986 
L 54.901099 -188.853986 
L 54.901099 -188.853986 
L 54.921368 -187.538813 
L 54.945518 -186.22364 
L 54.973647 -184.908467 
L 55.005649 -183.593294 
L 55.041168 -182.278122 
L 55.079575 -180.962949 
L 55.119955 -179.647776 
L 55.161126 -178.332603 
L 55.201686 -177.017431 
L 55.240077 -175.702258 
L 55.274685 -174.387085 
L 55.30395 -173.071912 
L 55.326481 -171.75674 
L 55.341165 -170.441567 
L 55.347261 -169.126394 
L 55.344462 -167.811221 
L 55.332927 -166.496048 
L 55.313264 -165.180876 
L 55.28649 -163.865703 
L 55.253954 -162.55053 
L 55.217237 -161.235357 
L 55.178049 -159.920185 
L 55.138131 -158.605012 
L 55.099173 -157.289839 
L 55.062753 -155.974666 
L 55.030315 -154.659493 
L 55.00317 -153.344321 
L 54.982535 -152.029148 
L 54.969586 -150.713975 
L 54.965532 -149.398802 
L 54.971685 -148.08363 
L 54.989526 -146.768457 
L 55.020748 -145.453284 
L 55.067268 -144.138111 
L 55.131207 -142.822939 
L 55.214825 -141.507766 
L 55.320424 -140.192593 
L 55.450206 -138.87742 
L 55.606111 -137.562247 
L 55.789647 -136.247075 
L 56.00171 -134.931902 
L 56.242431 -133.616729 
L 56.511056 -132.301556 
L 56.805871 -130.986384 
L 57.124183 -129.671211 
L 57.462364 -128.356038 
L 57.81595 -127.040865 
L 58.179791 -125.725693 
L 58.548243 -124.41052 
L 58.915384 -123.095347 
L 59.275239 -121.780174 
L 59.622004 -120.465001 
L 59.950257 -119.149829 
L 60.255146 -117.834656 
L 60.53255 -116.519483 
L 60.779217 -115.20431 
L 60.992867 -113.889138 
L 61.17228 -112.573965 
L 61.317344 -111.258792 
L 61.429088 -109.943619 
L 61.50967 -108.628447 
L 61.562326 -107.313274 
L 61.591275 -105.998101 
L 61.601552 -104.682928 
L 61.598779 -103.367755 
L 61.58886 -102.052583 
L 61.577608 -100.73741 
L 61.570318 -99.422237 
L 61.571305 -98.107064 
L 61.583461 -96.791892 
L 61.607845 -95.476719 
L 61.643397 -94.161546 
L 61.686782 -92.846373 
L 61.732437 -91.5312 
L 61.772821 -90.216028 
L 61.798889 -88.900855 
L 61.800741 -87.585682 
L 61.768419 -86.270509 
L 61.692771 -84.955337 
L 61.566291 -83.640164 
L 61.383855 -82.324991 
L 61.143268 -81.009818 
L 60.845562 -79.694646 
L 60.495009 -78.379473 
L 60.098855 -77.0643 
L 59.666791 -75.749127 
L 59.210247 -74.433954 
L 58.741552 -73.118782 
L 58.273085 -71.803609 
L 57.816473 -70.488436 
L 57.381918 -69.173263 
L 56.977709 -67.858091 
L 56.60993 -66.542918 
L 56.282382 -65.227745 
L 55.996683 -63.912572 
L 55.752514 -62.5974 
L 55.54797 -61.282227 
L 55.379959 -59.967054 
L 55.244606 -58.651881 
z
" id="m738ea1cb04" style="stroke:#464646;stroke-width:1.5;"/>
    </defs>
    <g clip-path="url(#pea954e8f54)">
     <use style="fill:#ea96a3;stroke:#464646;stroke-width:1.5;" x="0" xlink:href="#m738ea1cb04" y="265.69625"/>
    </g>
   </g>
   <g id="PolyCollection_2">
    <defs>
     <path d="M 83.063657 -58.701361 
L 82.398843 -58.701361 
L 82.287703 -60.042645 
L 82.148666 -61.38393 
L 81.9779 -62.725215 
L 81.772 -64.066499 
L 81.528307 -65.407784 
L 81.245217 -66.749069 
L 80.922494 -68.090354 
L 80.561511 -69.431638 
L 80.165414 -70.772923 
L 79.739179 -72.114208 
L 79.289521 -73.455492 
L 78.824676 -74.796777 
L 78.354039 -76.138062 
L 77.88769 -77.479347 
L 77.435841 -78.820631 
L 77.008243 -80.161916 
L 76.613607 -81.503201 
L 76.259085 -82.844485 
L 75.949861 -84.18577 
L 75.68889 -85.527055 
L 75.476799 -86.868339 
L 75.311983 -88.209624 
L 75.190867 -89.550909 
L 75.108333 -90.892194 
L 75.058274 -92.233478 
L 75.034222 -93.574763 
L 75.03001 -94.916048 
L 75.040389 -96.257332 
L 75.061558 -97.598617 
L 75.091532 -98.939902 
L 75.130334 -100.281187 
L 75.17994 -101.622471 
L 75.24403 -102.963756 
L 75.327508 -104.305041 
L 75.43589 -105.646325 
L 75.574586 -106.98761 
L 75.748184 -108.328895 
L 75.959795 -109.67018 
L 76.210561 -111.011464 
L 76.499363 -112.352749 
L 76.822766 -113.694034 
L 77.175215 -115.035318 
L 77.549441 -116.376603 
L 77.937031 -117.717888 
L 78.329084 -119.059172 
L 78.71689 -120.400457 
L 79.092545 -121.741742 
L 79.449442 -123.083027 
L 79.782602 -124.424311 
L 80.088829 -125.765596 
L 80.366678 -127.106881 
L 80.616285 -128.448165 
L 80.839072 -129.78945 
L 81.03739 -131.130735 
L 81.214138 -132.47202 
L 81.372403 -133.813304 
L 81.515149 -135.154589 
L 81.644983 -136.495874 
L 81.764001 -137.837158 
L 81.873716 -139.178443 
L 81.975062 -140.519728 
L 82.068444 -141.861012 
L 82.153844 -143.202297 
L 82.230933 -144.543582 
L 82.299196 -145.884867 
L 82.35805 -147.226151 
L 82.406942 -148.567436 
L 82.445438 -149.908721 
L 82.473281 -151.250005 
L 82.490442 -152.59129 
L 82.497156 -153.932575 
L 82.49394 -155.27386 
L 82.481609 -156.615144 
L 82.461277 -157.956429 
L 82.434347 -159.297714 
L 82.402487 -160.638998 
L 82.36758 -161.980283 
L 82.331659 -163.321568 
L 82.296821 -164.662852 
L 82.265122 -166.004137 
L 82.238461 -167.345422 
L 82.218469 -168.686707 
L 82.206402 -170.027991 
L 82.203063 -171.369276 
L 82.208755 -172.710561 
L 82.223268 -174.051845 
L 82.245914 -175.39313 
L 82.275594 -176.734415 
L 82.310894 -178.0757 
L 82.35021 -179.416984 
L 82.391866 -180.758269 
L 82.434237 -182.099554 
L 82.47585 -183.440838 
L 82.515463 -184.782123 
L 82.552112 -186.123408 
L 82.58513 -187.464693 
L 82.614142 -188.805977 
L 82.639031 -190.147262 
L 82.659897 -191.488547 
L 82.802603 -191.488547 
L 82.802603 -191.488547 
L 82.823469 -190.147262 
L 82.848358 -188.805977 
L 82.87737 -187.464693 
L 82.910388 -186.123408 
L 82.947037 -184.782123 
L 82.98665 -183.440838 
L 83.028263 -182.099554 
L 83.070634 -180.758269 
L 83.11229 -179.416984 
L 83.151606 -178.0757 
L 83.186906 -176.734415 
L 83.216586 -175.39313 
L 83.239232 -174.051845 
L 83.253745 -172.710561 
L 83.259437 -171.369276 
L 83.256098 -170.027991 
L 83.244031 -168.686707 
L 83.224039 -167.345422 
L 83.197378 -166.004137 
L 83.165679 -164.662852 
L 83.130841 -163.321568 
L 83.09492 -161.980283 
L 83.060013 -160.638998 
L 83.028153 -159.297714 
L 83.001223 -157.956429 
L 82.980891 -156.615144 
L 82.96856 -155.27386 
L 82.965344 -153.932575 
L 82.972058 -152.59129 
L 82.989219 -151.250005 
L 83.017062 -149.908721 
L 83.055558 -148.567436 
L 83.10445 -147.226151 
L 83.163304 -145.884867 
L 83.231567 -144.543582 
L 83.308656 -143.202297 
L 83.394056 -141.861012 
L 83.487438 -140.519728 
L 83.588784 -139.178443 
L 83.698499 -137.837158 
L 83.817517 -136.495874 
L 83.947351 -135.154589 
L 84.090097 -133.813304 
L 84.248362 -132.47202 
L 84.42511 -131.130735 
L 84.623428 -129.78945 
L 84.846215 -128.448165 
L 85.095822 -127.106881 
L 85.373671 -125.765596 
L 85.679898 -124.424311 
L 86.013058 -123.083027 
L 86.369955 -121.741742 
L 86.74561 -120.400457 
L 87.133416 -119.059172 
L 87.525469 -117.717888 
L 87.913059 -116.376603 
L 88.287285 -115.035318 
L 88.639734 -113.694034 
L 88.963137 -112.352749 
L 89.251939 -111.011464 
L 89.502705 -109.67018 
L 89.714316 -108.328895 
L 89.887914 -106.98761 
L 90.02661 -105.646325 
L 90.134992 -104.305041 
L 90.21847 -102.963756 
L 90.28256 -101.622471 
L 90.332166 -100.281187 
L 90.370968 -98.939902 
L 90.400942 -97.598617 
L 90.422111 -96.257332 
L 90.43249 -94.916048 
L 90.428278 -93.574763 
L 90.404226 -92.233478 
L 90.354167 -90.892194 
L 90.271633 -89.550909 
L 90.150517 -88.209624 
L 89.985701 -86.868339 
L 89.77361 -85.527055 
L 89.512639 -84.18577 
L 89.203415 -82.844485 
L 88.848893 -81.503201 
L 88.454257 -80.161916 
L 88.026659 -78.820631 
L 87.57481 -77.479347 
L 87.108461 -76.138062 
L 86.637824 -74.796777 
L 86.172979 -73.455492 
L 85.723321 -72.114208 
L 85.297086 -70.772923 
L 84.900989 -69.431638 
L 84.540006 -68.090354 
L 84.217283 -66.749069 
L 83.934193 -65.407784 
L 83.6905 -64.066499 
L 83.4846 -62.725215 
L 83.313834 -61.38393 
L 83.174797 -60.042645 
L 83.063657 -58.701361 
z
" id="m80cb4f2828" style="stroke:#464646;stroke-width:1.5;"/>
    </defs>
    <g clip-path="url(#pea954e8f54)">
     <use style="fill:#e19153;stroke:#464646;stroke-width:1.5;" x="0" xlink:href="#m80cb4f2828" y="265.69625"/>
    </g>
   </g>
   <g id="PolyCollection_3">
    <defs>
     <path d="M 110.959069 -61.31933 
L 110.303431 -61.31933 
L 110.189389 -62.601318 
L 110.045003 -63.883307 
L 109.865469 -65.165295 
L 109.646213 -66.447284 
L 109.383215 -67.729273 
L 109.073352 -69.011261 
L 108.714745 -70.29325 
L 108.307068 -71.575238 
L 107.851797 -72.857227 
L 107.352357 -74.139215 
L 106.814156 -75.421204 
L 106.244498 -76.703192 
L 105.65236 -77.985181 
L 105.048079 -79.267169 
L 104.442943 -80.549158 
L 103.848757 -81.831146 
L 103.277392 -83.113135 
L 102.74037 -84.395124 
L 102.248501 -85.677112 
L 101.811589 -86.959101 
L 101.438217 -88.241089 
L 101.135578 -89.523078 
L 100.909362 -90.805066 
L 100.763664 -92.087055 
L 100.700893 -93.369043 
L 100.721691 -94.651032 
L 100.824841 -95.93302 
L 101.0072 -97.215009 
L 101.263661 -98.496997 
L 101.587184 -99.778986 
L 101.968915 -101.060975 
L 102.398421 -102.342963 
L 102.864034 -103.624952 
L 103.353317 -104.90694 
L 103.853604 -106.188929 
L 104.352597 -107.470917 
L 104.838962 -108.752906 
L 105.302869 -110.034894 
L 105.736438 -111.316883 
L 106.134041 -112.598871 
L 106.492444 -113.88086 
L 106.810778 -115.162848 
L 107.090344 -116.444837 
L 107.334279 -117.726826 
L 107.547131 -119.008814 
L 107.734361 -120.290803 
L 107.901847 -121.572791 
L 108.055403 -122.85478 
L 108.200366 -124.136768 
L 108.341277 -125.418757 
L 108.481655 -126.700745 
L 108.623883 -127.982734 
L 108.769193 -129.264722 
L 108.917745 -130.546711 
L 109.068772 -131.828699 
L 109.220774 -133.110688 
L 109.371744 -134.392677 
L 109.519391 -135.674665 
L 109.661361 -136.956654 
L 109.795419 -138.238642 
L 109.919591 -139.520631 
L 110.032271 -140.802619 
L 110.132263 -142.084608 
L 110.2188 -143.366596 
L 110.29151 -144.648585 
L 110.350368 -145.930573 
L 110.395633 -147.212562 
L 110.427777 -148.49455 
L 110.447439 -149.776539 
L 110.455375 -151.058528 
L 110.452453 -152.340516 
L 110.439645 -153.622505 
L 110.418055 -154.904493 
L 110.388946 -156.186482 
L 110.353765 -157.46847 
L 110.31416 -158.750459 
L 110.271976 -160.032447 
L 110.229216 -161.314436 
L 110.187978 -162.596424 
L 110.150362 -163.878413 
L 110.11835 -165.160401 
L 110.093682 -166.44239 
L 110.077737 -167.724378 
L 110.071432 -169.006367 
L 110.075152 -170.288356 
L 110.088726 -171.570344 
L 110.11145 -172.852333 
L 110.142153 -174.134321 
L 110.179298 -175.41631 
L 110.221118 -176.698298 
L 110.265749 -177.980287 
L 110.311371 -179.262275 
L 110.356324 -180.544264 
L 110.399202 -181.826252 
L 110.43891 -183.108241 
L 110.474685 -184.390229 
L 110.506094 -185.672218 
L 110.532999 -186.954207 
L 110.555504 -188.236195 
L 110.706996 -188.236195 
L 110.706996 -188.236195 
L 110.729501 -186.954207 
L 110.756406 -185.672218 
L 110.787815 -184.390229 
L 110.82359 -183.108241 
L 110.863298 -181.826252 
L 110.906176 -180.544264 
L 110.951129 -179.262275 
L 110.996751 -177.980287 
L 111.041382 -176.698298 
L 111.083202 -175.41631 
L 111.120347 -174.134321 
L 111.15105 -172.852333 
L 111.173774 -171.570344 
L 111.187348 -170.288356 
L 111.191068 -169.006367 
L 111.184763 -167.724378 
L 111.168818 -166.44239 
L 111.14415 -165.160401 
L 111.112138 -163.878413 
L 111.074522 -162.596424 
L 111.033284 -161.314436 
L 110.990524 -160.032447 
L 110.94834 -158.750459 
L 110.908735 -157.46847 
L 110.873554 -156.186482 
L 110.844445 -154.904493 
L 110.822855 -153.622505 
L 110.810047 -152.340516 
L 110.807125 -151.058528 
L 110.815061 -149.776539 
L 110.834723 -148.49455 
L 110.866867 -147.212562 
L 110.912132 -145.930573 
L 110.97099 -144.648585 
L 111.0437 -143.366596 
L 111.130237 -142.084608 
L 111.230229 -140.802619 
L 111.342909 -139.520631 
L 111.467081 -138.238642 
L 111.601139 -136.956654 
L 111.743109 -135.674665 
L 111.890756 -134.392677 
L 112.041726 -133.110688 
L 112.193728 -131.828699 
L 112.344755 -130.546711 
L 112.493307 -129.264722 
L 112.638617 -127.982734 
L 112.780845 -126.700745 
L 112.921223 -125.418757 
L 113.062134 -124.136768 
L 113.207097 -122.85478 
L 113.360653 -121.572791 
L 113.528139 -120.290803 
L 113.715369 -119.008814 
L 113.928221 -117.726826 
L 114.172156 -116.444837 
L 114.451722 -115.162848 
L 114.770056 -113.88086 
L 115.128459 -112.598871 
L 115.526062 -111.316883 
L 115.959631 -110.034894 
L 116.423538 -108.752906 
L 116.909903 -107.470917 
L 117.408896 -106.188929 
L 117.909183 -104.90694 
L 118.398466 -103.624952 
L 118.864079 -102.342963 
L 119.293585 -101.060975 
L 119.675316 -99.778986 
L 119.998839 -98.496997 
L 120.2553 -97.215009 
L 120.437659 -95.93302 
L 120.540809 -94.651032 
L 120.561607 -93.369043 
L 120.498836 -92.087055 
L 120.353138 -90.805066 
L 120.126922 -89.523078 
L 119.824283 -88.241089 
L 119.450911 -86.959101 
L 119.013999 -85.677112 
L 118.52213 -84.395124 
L 117.985108 -83.113135 
L 117.413743 -81.831146 
L 116.819557 -80.549158 
L 116.214421 -79.267169 
L 115.61014 -77.985181 
L 115.018002 -76.703192 
L 114.448344 -75.421204 
L 113.910143 -74.139215 
L 113.410703 -72.857227 
L 112.955432 -71.575238 
L 112.547755 -70.29325 
L 112.189148 -69.011261 
L 111.879285 -67.729273 
L 111.616287 -66.447284 
L 111.397031 -65.165295 
L 111.217497 -63.883307 
L 111.073111 -62.601318 
L 110.959069 -61.31933 
z
" id="m103007ea19" style="stroke:#464646;stroke-width:1.5;"/>
    </defs>
    <g clip-path="url(#pea954e8f54)">
     <use style="fill:#b89c49;stroke:#464646;stroke-width:1.5;" x="0" xlink:href="#m103007ea19" y="265.69625"/>
    </g>
   </g>
   <g id="PolyCollection_4">
    <defs>
     <path d="M 138.888416 -64.952615 
L 138.174084 -64.952615 
L 138.049628 -65.982911 
L 137.89153 -67.013206 
L 137.694166 -68.043502 
L 137.452055 -69.073798 
L 137.160229 -70.104094 
L 136.814646 -71.134389 
L 136.41263 -72.164685 
L 135.953289 -73.194981 
L 135.43788 -74.225276 
L 134.870074 -75.255572 
L 134.256077 -76.285868 
L 133.604598 -77.316164 
L 132.926622 -78.346459 
L 132.235023 -79.376755 
L 131.544019 -80.407051 
L 130.868522 -81.437347 
L 130.223426 -82.467642 
L 129.622901 -83.497938 
L 129.079737 -84.528234 
L 128.604803 -85.558529 
L 128.206632 -86.588825 
L 127.891169 -87.619121 
L 127.661674 -88.649417 
L 127.518772 -89.679712 
L 127.460615 -90.710008 
L 127.483156 -91.740304 
L 127.580477 -92.7706 
L 127.745172 -93.800895 
L 127.968754 -94.831191 
L 128.242067 -95.861487 
L 128.555701 -96.891782 
L 128.900385 -97.922078 
L 129.267349 -98.952374 
L 129.648627 -99.98267 
L 130.037296 -101.012965 
L 130.427633 -102.043261 
L 130.815167 -103.073557 
L 131.19664 -104.103853 
L 131.569878 -105.134148 
L 131.933587 -106.164444 
L 132.287116 -107.19474 
L 132.630198 -108.225035 
L 132.962723 -109.255331 
L 133.284563 -110.285627 
L 133.595463 -111.315923 
L 133.895017 -112.346218 
L 134.182712 -113.376514 
L 134.458027 -114.40681 
L 134.720569 -115.437106 
L 134.970197 -116.467401 
L 135.20712 -117.497697 
L 135.431949 -118.527993 
L 135.645673 -119.558288 
L 135.849578 -120.588584 
L 136.04511 -121.61888 
L 136.2337 -122.649176 
L 136.416583 -123.679471 
L 136.594636 -124.709767 
L 136.768249 -125.740063 
L 136.937264 -126.770359 
L 137.100968 -127.800654 
L 137.258156 -128.83095 
L 137.407243 -129.861246 
L 137.54641 -130.891542 
L 137.673771 -131.921837 
L 137.787535 -132.952133 
L 137.88616 -133.982429 
L 137.968466 -135.012724 
L 138.033732 -136.04302 
L 138.081747 -137.073316 
L 138.112838 -138.103612 
L 138.12787 -139.133907 
L 138.128222 -140.164203 
L 138.115741 -141.194499 
L 138.092687 -142.224795 
L 138.061646 -143.25509 
L 138.025441 -144.285386 
L 137.98701 -145.315682 
L 137.949281 -146.345977 
L 137.915035 -147.376273 
L 137.88676 -148.406569 
L 137.86653 -149.436865 
L 137.855889 -150.46716 
L 137.855778 -151.497456 
L 137.866498 -152.527752 
L 137.887719 -153.558048 
L 137.918537 -154.588343 
L 137.957567 -155.618639 
L 138.003069 -156.648935 
L 138.053096 -157.67923 
L 138.105637 -158.709526 
L 138.15876 -159.739822 
L 138.210725 -160.770118 
L 138.260072 -161.800413 
L 138.305677 -162.830709 
L 138.346764 -163.861005 
L 138.382904 -164.891301 
L 138.413968 -165.921596 
L 138.440086 -166.951892 
L 138.622414 -166.951892 
L 138.622414 -166.951892 
L 138.648532 -165.921596 
L 138.679596 -164.891301 
L 138.715736 -163.861005 
L 138.756823 -162.830709 
L 138.802428 -161.800413 
L 138.851775 -160.770118 
L 138.90374 -159.739822 
L 138.956863 -158.709526 
L 139.009404 -157.67923 
L 139.059431 -156.648935 
L 139.104933 -155.618639 
L 139.143963 -154.588343 
L 139.174781 -153.558048 
L 139.196002 -152.527752 
L 139.206722 -151.497456 
L 139.206611 -150.46716 
L 139.19597 -149.436865 
L 139.17574 -148.406569 
L 139.147465 -147.376273 
L 139.113219 -146.345977 
L 139.07549 -145.315682 
L 139.037059 -144.285386 
L 139.000854 -143.25509 
L 138.969813 -142.224795 
L 138.946759 -141.194499 
L 138.934278 -140.164203 
L 138.93463 -139.133907 
L 138.949662 -138.103612 
L 138.980753 -137.073316 
L 139.028768 -136.04302 
L 139.094034 -135.012724 
L 139.17634 -133.982429 
L 139.274965 -132.952133 
L 139.388729 -131.921837 
L 139.51609 -130.891542 
L 139.655257 -129.861246 
L 139.804344 -128.83095 
L 139.961532 -127.800654 
L 140.125236 -126.770359 
L 140.294251 -125.740063 
L 140.467864 -124.709767 
L 140.645917 -123.679471 
L 140.8288 -122.649176 
L 141.01739 -121.61888 
L 141.212922 -120.588584 
L 141.416827 -119.558288 
L 141.630551 -118.527993 
L 141.85538 -117.497697 
L 142.092303 -116.467401 
L 142.341931 -115.437106 
L 142.604473 -114.40681 
L 142.879788 -113.376514 
L 143.167483 -112.346218 
L 143.467037 -111.315923 
L 143.777937 -110.285627 
L 144.099777 -109.255331 
L 144.432302 -108.225035 
L 144.775384 -107.19474 
L 145.128913 -106.164444 
L 145.492622 -105.134148 
L 145.86586 -104.103853 
L 146.247333 -103.073557 
L 146.634867 -102.043261 
L 147.025204 -101.012965 
L 147.413873 -99.98267 
L 147.795151 -98.952374 
L 148.162115 -97.922078 
L 148.506799 -96.891782 
L 148.820433 -95.861487 
L 149.093746 -94.831191 
L 149.317328 -93.800895 
L 149.482023 -92.7706 
L 149.579344 -91.740304 
L 149.601885 -90.710008 
L 149.543728 -89.679712 
L 149.400826 -88.649417 
L 149.171331 -87.619121 
L 148.855868 -86.588825 
L 148.457697 -85.558529 
L 147.982763 -84.528234 
L 147.439599 -83.497938 
L 146.839074 -82.467642 
L 146.193978 -81.437347 
L 145.518481 -80.407051 
L 144.827477 -79.376755 
L 144.135878 -78.346459 
L 143.457902 -77.316164 
L 142.806423 -76.285868 
L 142.192426 -75.255572 
L 141.62462 -74.225276 
L 141.109211 -73.194981 
L 140.64987 -72.164685 
L 140.247854 -71.134389 
L 139.902271 -70.104094 
L 139.610445 -69.073798 
L 139.368334 -68.043502 
L 139.17097 -67.013206 
L 139.012872 -65.982911 
L 138.888416 -64.952615 
z
" id="m779d0bb909" style="stroke:#464646;stroke-width:1.5;"/>
    </defs>
    <g clip-path="url(#pea954e8f54)">
     <use style="fill:#98a246;stroke:#464646;stroke-width:1.5;" x="0" xlink:href="#m779d0bb909" y="265.69625"/>
    </g>
   </g>
   <g id="PolyCollection_5">
    <defs>
     <path d="M 166.649165 -62.93004 
L 166.213335 -62.93004 
L 166.143611 -63.809548 
L 166.055606 -64.689056 
L 165.945851 -65.568565 
L 165.810614 -66.448073 
L 165.645993 -67.327581 
L 165.448051 -68.20709 
L 165.212981 -69.086598 
L 164.937315 -69.966106 
L 164.618149 -70.845615 
L 164.253402 -71.725123 
L 163.842064 -72.604631 
L 163.384449 -73.48414 
L 162.882399 -74.363648 
L 162.339449 -75.243156 
L 161.760909 -76.122665 
L 161.153854 -77.002173 
L 160.527015 -77.881681 
L 159.890552 -78.76119 
L 159.255722 -79.640698 
L 158.634451 -80.520206 
L 158.038834 -81.399714 
L 157.48059 -82.279223 
L 156.970518 -83.158731 
L 156.517987 -84.038239 
L 156.130495 -84.917748 
L 155.813349 -85.797256 
L 155.569474 -86.676764 
L 155.399374 -87.556273 
L 155.301249 -88.435781 
L 155.27125 -89.315289 
L 155.303852 -90.194798 
L 155.392311 -91.074306 
L 155.529169 -91.953814 
L 155.706751 -92.833323 
L 155.917629 -93.712831 
L 156.155017 -94.592339 
L 156.413057 -95.471848 
L 156.686996 -96.351356 
L 156.973243 -97.230864 
L 157.269312 -98.110372 
L 157.573672 -98.989881 
L 157.88552 -99.869389 
L 158.204513 -100.748897 
L 158.530487 -101.628406 
L 158.863188 -102.507914 
L 159.202049 -103.387422 
L 159.546027 -104.266931 
L 159.893514 -105.146439 
L 160.242328 -106.025947 
L 160.58978 -106.905456 
L 160.932811 -107.784964 
L 161.268171 -108.664472 
L 161.592628 -109.543981 
L 161.903177 -110.423489 
L 162.197239 -111.302997 
L 162.472807 -112.182506 
L 162.728545 -113.062014 
L 162.963824 -113.941522 
L 163.178685 -114.82103 
L 163.373758 -115.700539 
L 163.55012 -116.580047 
L 163.709132 -117.459555 
L 163.852275 -118.339064 
L 163.980984 -119.218572 
L 164.096531 -120.09808 
L 164.19994 -120.977589 
L 164.291967 -121.857097 
L 164.37312 -122.736605 
L 164.443746 -123.616114 
L 164.504132 -124.495622 
L 164.554643 -125.37513 
L 164.595845 -126.254639 
L 164.628615 -127.134147 
L 164.654214 -128.013655 
L 164.674306 -128.893164 
L 164.690932 -129.772672 
L 164.706422 -130.65218 
L 164.723271 -131.531688 
L 164.743975 -132.411197 
L 164.770866 -133.290705 
L 164.80593 -134.170213 
L 164.850673 -135.049722 
L 164.906002 -135.92923 
L 164.972168 -136.808738 
L 165.048753 -137.688247 
L 165.134718 -138.567755 
L 165.22849 -139.447263 
L 165.328088 -140.326772 
L 165.431269 -141.20628 
L 165.535687 -142.085788 
L 165.639043 -142.965297 
L 165.739213 -143.844805 
L 165.83436 -144.724313 
L 165.923002 -145.603822 
L 166.004054 -146.48333 
L 166.076835 -147.362838 
L 166.141049 -148.242346 
L 166.196737 -149.121855 
L 166.244227 -150.001363 
L 166.618273 -150.001363 
L 166.618273 -150.001363 
L 166.665763 -149.121855 
L 166.721451 -148.242346 
L 166.785665 -147.362838 
L 166.858446 -146.48333 
L 166.939498 -145.603822 
L 167.02814 -144.724313 
L 167.123287 -143.844805 
L 167.223457 -142.965297 
L 167.326813 -142.085788 
L 167.431231 -141.20628 
L 167.534412 -140.326772 
L 167.63401 -139.447263 
L 167.727782 -138.567755 
L 167.813747 -137.688247 
L 167.890332 -136.808738 
L 167.956498 -135.92923 
L 168.011827 -135.049722 
L 168.05657 -134.170213 
L 168.091634 -133.290705 
L 168.118525 -132.411197 
L 168.139229 -131.531688 
L 168.156078 -130.65218 
L 168.171568 -129.772672 
L 168.188194 -128.893164 
L 168.208286 -128.013655 
L 168.233885 -127.134147 
L 168.266655 -126.254639 
L 168.307857 -125.37513 
L 168.358368 -124.495622 
L 168.418754 -123.616114 
L 168.48938 -122.736605 
L 168.570533 -121.857097 
L 168.66256 -120.977589 
L 168.765969 -120.09808 
L 168.881516 -119.218572 
L 169.010225 -118.339064 
L 169.153368 -117.459555 
L 169.31238 -116.580047 
L 169.488742 -115.700539 
L 169.683815 -114.82103 
L 169.898676 -113.941522 
L 170.133955 -113.062014 
L 170.389693 -112.182506 
L 170.665261 -111.302997 
L 170.959323 -110.423489 
L 171.269872 -109.543981 
L 171.594329 -108.664472 
L 171.929689 -107.784964 
L 172.27272 -106.905456 
L 172.620172 -106.025947 
L 172.968986 -105.146439 
L 173.316473 -104.266931 
L 173.660451 -103.387422 
L 173.999312 -102.507914 
L 174.332013 -101.628406 
L 174.657987 -100.748897 
L 174.97698 -99.869389 
L 175.288828 -98.989881 
L 175.593188 -98.110372 
L 175.889257 -97.230864 
L 176.175504 -96.351356 
L 176.449443 -95.471848 
L 176.707483 -94.592339 
L 176.944871 -93.712831 
L 177.155749 -92.833323 
L 177.333331 -91.953814 
L 177.470189 -91.074306 
L 177.558648 -90.194798 
L 177.59125 -89.315289 
L 177.561251 -88.435781 
L 177.463126 -87.556273 
L 177.293026 -86.676764 
L 177.049151 -85.797256 
L 176.732005 -84.917748 
L 176.344513 -84.038239 
L 175.891982 -83.158731 
L 175.38191 -82.279223 
L 174.823666 -81.399714 
L 174.228049 -80.520206 
L 173.606778 -79.640698 
L 172.971948 -78.76119 
L 172.335485 -77.881681 
L 171.708646 -77.002173 
L 171.101591 -76.122665 
L 170.523051 -75.243156 
L 169.980101 -74.363648 
L 169.478051 -73.48414 
L 169.020436 -72.604631 
L 168.609098 -71.725123 
L 168.244351 -70.845615 
L 167.925185 -69.966106 
L 167.649519 -69.086598 
L 167.414449 -68.20709 
L 167.216507 -67.327581 
L 167.051886 -66.448073 
L 166.916649 -65.568565 
L 166.806894 -64.689056 
L 166.718889 -63.809548 
L 166.649165 -62.93004 
z
" id="m183baabbdb" style="stroke:#464646;stroke-width:1.5;"/>
    </defs>
    <g clip-path="url(#pea954e8f54)">
     <use style="fill:#60ae47;stroke:#464646;stroke-width:1.5;" x="0" xlink:href="#m183baabbdb" y="265.69625"/>
    </g>
   </g>
   <g id="PolyCollection_6">
    <defs>
     <path d="M 194.571591 -63.420533 
L 194.090909 -63.420533 
L 194.017376 -64.224805 
L 193.926135 -65.029077 
L 193.814429 -65.833349 
L 193.679486 -66.637621 
L 193.518644 -67.441893 
L 193.329481 -68.246165 
L 193.109971 -69.050438 
L 192.858627 -69.85471 
L 192.574649 -70.658982 
L 192.258041 -71.463254 
L 191.909706 -72.267526 
L 191.53149 -73.071798 
L 191.12618 -73.87607 
L 190.697454 -74.680342 
L 190.249768 -75.484614 
L 189.788201 -76.288887 
L 189.318267 -77.093159 
L 188.845698 -77.897431 
L 188.376227 -78.701703 
L 187.915374 -79.505975 
L 187.468271 -80.310247 
L 187.039516 -81.114519 
L 186.633085 -81.918791 
L 186.252281 -82.723064 
L 185.899747 -83.527336 
L 185.577502 -84.331608 
L 185.287008 -85.13588 
L 185.029248 -85.940152 
L 184.804796 -86.744424 
L 184.613868 -87.548696 
L 184.456355 -88.352968 
L 184.331819 -89.157241 
L 184.239477 -89.961513 
L 184.178163 -90.765785 
L 184.1463 -91.570057 
L 184.141881 -92.374329 
L 184.162492 -93.178601 
L 184.205379 -93.982873 
L 184.267555 -94.787145 
L 184.345973 -95.591418 
L 184.437723 -96.39569 
L 184.540249 -97.199962 
L 184.651571 -98.004234 
L 184.770461 -98.808506 
L 184.896576 -99.612778 
L 185.030498 -100.41705 
L 185.173698 -101.221322 
L 185.328389 -102.025595 
L 185.497309 -102.829867 
L 185.683431 -103.634139 
L 185.889631 -104.438411 
L 186.118355 -105.242683 
L 186.371307 -106.046955 
L 186.649204 -106.851227 
L 186.951601 -107.655499 
L 187.276815 -108.459772 
L 187.621953 -109.264044 
L 187.983029 -110.068316 
L 188.35516 -110.872588 
L 188.73282 -111.67686 
L 189.110132 -112.481132 
L 189.481162 -113.285404 
L 189.840209 -114.089676 
L 190.18206 -114.893948 
L 190.502204 -115.698221 
L 190.797005 -116.502493 
L 191.06381 -117.306765 
L 191.301026 -118.111037 
L 191.508132 -118.915309 
L 191.685661 -119.719581 
L 191.835132 -120.523853 
L 191.958956 -121.328125 
L 192.060298 -122.132398 
L 192.142914 -122.93667 
L 192.210965 -123.740942 
L 192.268812 -124.545214 
L 192.320797 -125.349486 
L 192.371033 -126.153758 
L 192.423204 -126.95803 
L 192.480397 -127.762302 
L 192.544963 -128.566575 
L 192.618442 -129.370847 
L 192.701522 -130.175119 
L 192.794075 -130.979391 
L 192.895226 -131.783663 
L 193.003474 -132.587935 
L 193.116848 -133.392207 
L 193.233077 -134.196479 
L 193.349761 -135.000752 
L 193.464543 -135.805024 
L 193.575246 -136.609296 
L 193.679992 -137.413568 
L 193.777276 -138.21784 
L 193.866012 -139.022112 
L 193.945537 -139.826384 
L 194.01559 -140.630656 
L 194.076269 -141.434929 
L 194.127964 -142.239201 
L 194.171295 -143.043473 
L 194.491205 -143.043473 
L 194.491205 -143.043473 
L 194.534536 -142.239201 
L 194.586231 -141.434929 
L 194.64691 -140.630656 
L 194.716963 -139.826384 
L 194.796488 -139.022112 
L 194.885224 -138.21784 
L 194.982508 -137.413568 
L 195.087254 -136.609296 
L 195.197957 -135.805024 
L 195.312739 -135.000752 
L 195.429423 -134.196479 
L 195.545652 -133.392207 
L 195.659026 -132.587935 
L 195.767274 -131.783663 
L 195.868425 -130.979391 
L 195.960978 -130.175119 
L 196.044058 -129.370847 
L 196.117537 -128.566575 
L 196.182103 -127.762302 
L 196.239296 -126.95803 
L 196.291467 -126.153758 
L 196.341703 -125.349486 
L 196.393688 -124.545214 
L 196.451535 -123.740942 
L 196.519586 -122.93667 
L 196.602202 -122.132398 
L 196.703544 -121.328125 
L 196.827368 -120.523853 
L 196.976839 -119.719581 
L 197.154368 -118.915309 
L 197.361474 -118.111037 
L 197.59869 -117.306765 
L 197.865495 -116.502493 
L 198.160296 -115.698221 
L 198.48044 -114.893948 
L 198.822291 -114.089676 
L 199.181338 -113.285404 
L 199.552368 -112.481132 
L 199.92968 -111.67686 
L 200.30734 -110.872588 
L 200.679471 -110.068316 
L 201.040547 -109.264044 
L 201.385685 -108.459772 
L 201.710899 -107.655499 
L 202.013296 -106.851227 
L 202.291193 -106.046955 
L 202.544145 -105.242683 
L 202.772869 -104.438411 
L 202.979069 -103.634139 
L 203.165191 -102.829867 
L 203.334111 -102.025595 
L 203.488802 -101.221322 
L 203.632002 -100.41705 
L 203.765924 -99.612778 
L 203.892039 -98.808506 
L 204.010929 -98.004234 
L 204.122251 -97.199962 
L 204.224777 -96.39569 
L 204.316527 -95.591418 
L 204.394945 -94.787145 
L 204.457121 -93.982873 
L 204.500008 -93.178601 
L 204.520619 -92.374329 
L 204.5162 -91.570057 
L 204.484337 -90.765785 
L 204.423023 -89.961513 
L 204.330681 -89.157241 
L 204.206145 -88.352968 
L 204.048632 -87.548696 
L 203.857704 -86.744424 
L 203.633252 -85.940152 
L 203.375492 -85.13588 
L 203.084998 -84.331608 
L 202.762753 -83.527336 
L 202.410219 -82.723064 
L 202.029415 -81.918791 
L 201.622984 -81.114519 
L 201.194229 -80.310247 
L 200.747126 -79.505975 
L 200.286273 -78.701703 
L 199.816802 -77.897431 
L 199.344233 -77.093159 
L 198.874299 -76.288887 
L 198.412732 -75.484614 
L 197.965046 -74.680342 
L 197.53632 -73.87607 
L 197.13101 -73.071798 
L 196.752794 -72.267526 
L 196.404459 -71.463254 
L 196.087851 -70.658982 
L 195.803873 -69.85471 
L 195.552529 -69.050438 
L 195.333019 -68.246165 
L 195.143856 -67.441893 
L 194.983014 -66.637621 
L 194.848071 -65.833349 
L 194.736365 -65.029077 
L 194.645124 -64.224805 
L 194.571591 -63.420533 
z
" id="m04dd90d55a" style="stroke:#464646;stroke-width:1.5;"/>
    </defs>
    <g clip-path="url(#pea954e8f54)">
     <use style="fill:#4aae8a;stroke:#464646;stroke-width:1.5;" x="0" xlink:href="#m04dd90d55a" y="265.69625"/>
    </g>
   </g>
   <g id="PolyCollection_7">
    <defs>
     <path d="M 222.48579 -61.768998 
L 221.97671 -61.768998 
L 221.889199 -62.711907 
L 221.777891 -63.654815 
L 221.638516 -64.597723 
L 221.466718 -65.540632 
L 221.258271 -66.48354 
L 221.009346 -67.426448 
L 220.716806 -68.369357 
L 220.378529 -69.312265 
L 219.993725 -70.255174 
L 219.563215 -71.198082 
L 219.089663 -72.14099 
L 218.577704 -73.083899 
L 218.033961 -74.026807 
L 217.46692 -74.969715 
L 216.886664 -75.912624 
L 216.304454 -76.855532 
L 215.732193 -77.79844 
L 215.181792 -78.741349 
L 214.664493 -79.684257 
L 214.190198 -80.627165 
L 213.766869 -81.570074 
L 213.400059 -82.512982 
L 213.092611 -83.455891 
L 212.844585 -84.398799 
L 212.653394 -85.341707 
L 212.514181 -86.284616 
L 212.420366 -87.227524 
L 212.36435 -88.170432 
L 212.338275 -89.113341 
L 212.334783 -90.056249 
L 212.347701 -90.999157 
L 212.372566 -91.942066 
L 212.406956 -92.884974 
L 212.450587 -93.827882 
L 212.505184 -94.770791 
L 212.574126 -95.713699 
L 212.661929 -96.656608 
L 212.773618 -97.599516 
L 212.914051 -98.542424 
L 213.087284 -99.485333 
L 213.296024 -100.428241 
L 213.541237 -101.371149 
L 213.821941 -102.314058 
L 214.135203 -103.256966 
L 214.476322 -104.199874 
L 214.83919 -105.142783 
L 215.216773 -106.085691 
L 215.601667 -107.028599 
L 215.986664 -107.971508 
L 216.365272 -108.914416 
L 216.732148 -109.857325 
L 217.083387 -110.800233 
L 217.416659 -111.743141 
L 217.731184 -112.68605 
L 218.027562 -113.628958 
L 218.30747 -114.571866 
L 218.573291 -115.514775 
L 218.827696 -116.457683 
L 219.073242 -117.400591 
L 219.31202 -118.3435 
L 219.545386 -119.286408 
L 219.773808 -120.229316 
L 219.996819 -121.172225 
L 220.213083 -122.115133 
L 220.420557 -123.058042 
L 220.61672 -124.00095 
L 220.798839 -124.943858 
L 220.964254 -125.886767 
L 221.110635 -126.829675 
L 221.23621 -127.772583 
L 221.339931 -128.715492 
L 221.421587 -129.6584 
L 221.481835 -130.601308 
L 221.522182 -131.544217 
L 221.544899 -132.487125 
L 221.55289 -133.430033 
L 221.549525 -134.372942 
L 221.538437 -135.31585 
L 221.523324 -136.258758 
L 221.507732 -137.201667 
L 221.494871 -138.144575 
L 221.487444 -139.087484 
L 221.487527 -140.030392 
L 221.496483 -140.9733 
L 221.514942 -141.916209 
L 221.542821 -142.859117 
L 221.5794 -143.802025 
L 221.623434 -144.744934 
L 221.673295 -145.687842 
L 221.727125 -146.63075 
L 221.782994 -147.573659 
L 221.839038 -148.516567 
L 221.89358 -149.459475 
L 221.945214 -150.402384 
L 221.992857 -151.345292 
L 222.035772 -152.288201 
L 222.07355 -153.231109 
L 222.106083 -154.174017 
L 222.133511 -155.116926 
L 222.328989 -155.116926 
L 222.328989 -155.116926 
L 222.356417 -154.174017 
L 222.38895 -153.231109 
L 222.426728 -152.288201 
L 222.469643 -151.345292 
L 222.517286 -150.402384 
L 222.56892 -149.459475 
L 222.623462 -148.516567 
L 222.679506 -147.573659 
L 222.735375 -146.63075 
L 222.789205 -145.687842 
L 222.839066 -144.744934 
L 222.8831 -143.802025 
L 222.919679 -142.859117 
L 222.947558 -141.916209 
L 222.966017 -140.9733 
L 222.974973 -140.030392 
L 222.975056 -139.087484 
L 222.967629 -138.144575 
L 222.954768 -137.201667 
L 222.939176 -136.258758 
L 222.924063 -135.31585 
L 222.912975 -134.372942 
L 222.90961 -133.430033 
L 222.917601 -132.487125 
L 222.940318 -131.544217 
L 222.980665 -130.601308 
L 223.040913 -129.6584 
L 223.122569 -128.715492 
L 223.22629 -127.772583 
L 223.351865 -126.829675 
L 223.498246 -125.886767 
L 223.663661 -124.943858 
L 223.84578 -124.00095 
L 224.041943 -123.058042 
L 224.249417 -122.115133 
L 224.465681 -121.172225 
L 224.688692 -120.229316 
L 224.917114 -119.286408 
L 225.15048 -118.3435 
L 225.389258 -117.400591 
L 225.634804 -116.457683 
L 225.889209 -115.514775 
L 226.15503 -114.571866 
L 226.434938 -113.628958 
L 226.731316 -112.68605 
L 227.045841 -111.743141 
L 227.379113 -110.800233 
L 227.730352 -109.857325 
L 228.097228 -108.914416 
L 228.475836 -107.971508 
L 228.860833 -107.028599 
L 229.245727 -106.085691 
L 229.62331 -105.142783 
L 229.986178 -104.199874 
L 230.327297 -103.256966 
L 230.640559 -102.314058 
L 230.921263 -101.371149 
L 231.166476 -100.428241 
L 231.375216 -99.485333 
L 231.548449 -98.542424 
L 231.688882 -97.599516 
L 231.800571 -96.656608 
L 231.888374 -95.713699 
L 231.957316 -94.770791 
L 232.011913 -93.827882 
L 232.055544 -92.884974 
L 232.089934 -91.942066 
L 232.114799 -90.999157 
L 232.127717 -90.056249 
L 232.124225 -89.113341 
L 232.09815 -88.170432 
L 232.042134 -87.227524 
L 231.948319 -86.284616 
L 231.809106 -85.341707 
L 231.617915 -84.398799 
L 231.369889 -83.455891 
L 231.062441 -82.512982 
L 230.695631 -81.570074 
L 230.272302 -80.627165 
L 229.798007 -79.684257 
L 229.280708 -78.741349 
L 228.730307 -77.79844 
L 228.158046 -76.855532 
L 227.575836 -75.912624 
L 226.99558 -74.969715 
L 226.428539 -74.026807 
L 225.884796 -73.083899 
L 225.372837 -72.14099 
L 224.899285 -71.198082 
L 224.468775 -70.255174 
L 224.083971 -69.312265 
L 223.745694 -68.369357 
L 223.453154 -67.426448 
L 223.204229 -66.48354 
L 222.995782 -65.540632 
L 222.823984 -64.597723 
L 222.684609 -63.654815 
L 222.573301 -62.711907 
L 222.48579 -61.768998 
z
" id="mf094ebd295" style="stroke:#464646;stroke-width:1.5;"/>
    </defs>
    <g clip-path="url(#pea954e8f54)">
     <use style="fill:#4baba4;stroke:#464646;stroke-width:1.5;" x="0" xlink:href="#mf094ebd295" y="265.69625"/>
    </g>
   </g>
   <g id="PolyCollection_8">
    <defs>
     <path d="M 250.652811 -61.982452 
L 249.609689 -61.982452 
L 249.474376 -62.991632 
L 249.31266 -64.000812 
L 249.121815 -65.009992 
L 248.899446 -66.019172 
L 248.643666 -67.028352 
L 248.353278 -68.037532 
L 248.027945 -69.046712 
L 247.668358 -70.055892 
L 247.276357 -71.065072 
L 246.855019 -72.074252 
L 246.408692 -73.083432 
L 245.942955 -74.092612 
L 245.464518 -75.101792 
L 244.981048 -76.110972 
L 244.500927 -77.120152 
L 244.03296 -78.129332 
L 243.586035 -79.138512 
L 243.168768 -80.147692 
L 242.789143 -81.156872 
L 242.454171 -82.166052 
L 242.169596 -83.175231 
L 241.93966 -84.184411 
L 241.766943 -85.193591 
L 241.652289 -86.202771 
L 241.594815 -87.211951 
L 241.592008 -88.221131 
L 241.639898 -89.230311 
L 241.73329 -90.239491 
L 241.866041 -91.248671 
L 242.03137 -92.257851 
L 242.222168 -93.267031 
L 242.431305 -94.276211 
L 242.651909 -95.285391 
L 242.877613 -96.294571 
L 243.102752 -97.303751 
L 243.322516 -98.312931 
L 243.53305 -99.322111 
L 243.731505 -100.331291 
L 243.916044 -101.340471 
L 244.085809 -102.349651 
L 244.24085 -103.358831 
L 244.382029 -104.368011 
L 244.510894 -105.377191 
L 244.629546 -106.386371 
L 244.740482 -107.395551 
L 244.846437 -108.404731 
L 244.950223 -109.413911 
L 245.054574 -110.42309 
L 245.161993 -111.43227 
L 245.274625 -112.44145 
L 245.394141 -113.45063 
L 245.521656 -114.45981 
L 245.657675 -115.46899 
L 245.802073 -116.47817 
L 245.954113 -117.48735 
L 246.112497 -118.49653 
L 246.275451 -119.50571 
L 246.440835 -120.51489 
L 246.606273 -121.52407 
L 246.769299 -122.53325 
L 246.927502 -123.54243 
L 247.078666 -124.55161 
L 247.220895 -125.56079 
L 247.352719 -126.56997 
L 247.473168 -127.57915 
L 247.581817 -128.58833 
L 247.678796 -129.59751 
L 247.764769 -130.60669 
L 247.840882 -131.61587 
L 247.908684 -132.62505 
L 247.970026 -133.63423 
L 248.026953 -134.64341 
L 248.081582 -135.65259 
L 248.135987 -136.66177 
L 248.192081 -137.67095 
L 248.251527 -138.680129 
L 248.315655 -139.689309 
L 248.385406 -140.698489 
L 248.461303 -141.707669 
L 248.543444 -142.716849 
L 248.631516 -143.726029 
L 248.72484 -144.735209 
L 248.822424 -145.744389 
L 248.923037 -146.753569 
L 249.025285 -147.762749 
L 249.127694 -148.771929 
L 249.228788 -149.781109 
L 249.327161 -150.790289 
L 249.42154 -151.799469 
L 249.510832 -152.808649 
L 249.594159 -153.817829 
L 249.670871 -154.827009 
L 249.740556 -155.836189 
L 249.80303 -156.845369 
L 249.858314 -157.854549 
L 249.906609 -158.863729 
L 249.948265 -159.872909 
L 249.983742 -160.882089 
L 250.013583 -161.891269 
L 250.248917 -161.891269 
L 250.248917 -161.891269 
L 250.278758 -160.882089 
L 250.314235 -159.872909 
L 250.355891 -158.863729 
L 250.404186 -157.854549 
L 250.45947 -156.845369 
L 250.521944 -155.836189 
L 250.591629 -154.827009 
L 250.668341 -153.817829 
L 250.751668 -152.808649 
L 250.84096 -151.799469 
L 250.935339 -150.790289 
L 251.033712 -149.781109 
L 251.134806 -148.771929 
L 251.237215 -147.762749 
L 251.339463 -146.753569 
L 251.440076 -145.744389 
L 251.53766 -144.735209 
L 251.630984 -143.726029 
L 251.719056 -142.716849 
L 251.801197 -141.707669 
L 251.877094 -140.698489 
L 251.946845 -139.689309 
L 252.010973 -138.680129 
L 252.070419 -137.67095 
L 252.126513 -136.66177 
L 252.180918 -135.65259 
L 252.235547 -134.64341 
L 252.292474 -133.63423 
L 252.353816 -132.62505 
L 252.421618 -131.61587 
L 252.497731 -130.60669 
L 252.583704 -129.59751 
L 252.680683 -128.58833 
L 252.789332 -127.57915 
L 252.909781 -126.56997 
L 253.041605 -125.56079 
L 253.183834 -124.55161 
L 253.334998 -123.54243 
L 253.493201 -122.53325 
L 253.656227 -121.52407 
L 253.821665 -120.51489 
L 253.987049 -119.50571 
L 254.150003 -118.49653 
L 254.308387 -117.48735 
L 254.460427 -116.47817 
L 254.604825 -115.46899 
L 254.740844 -114.45981 
L 254.868359 -113.45063 
L 254.987875 -112.44145 
L 255.100507 -111.43227 
L 255.207926 -110.42309 
L 255.312277 -109.413911 
L 255.416063 -108.404731 
L 255.522018 -107.395551 
L 255.632954 -106.386371 
L 255.751606 -105.377191 
L 255.880471 -104.368011 
L 256.02165 -103.358831 
L 256.176691 -102.349651 
L 256.346456 -101.340471 
L 256.530995 -100.331291 
L 256.72945 -99.322111 
L 256.939984 -98.312931 
L 257.159748 -97.303751 
L 257.384887 -96.294571 
L 257.610591 -95.285391 
L 257.831195 -94.276211 
L 258.040332 -93.267031 
L 258.23113 -92.257851 
L 258.396459 -91.248671 
L 258.52921 -90.239491 
L 258.622602 -89.230311 
L 258.670492 -88.221131 
L 258.667685 -87.211951 
L 258.610211 -86.202771 
L 258.495557 -85.193591 
L 258.32284 -84.184411 
L 258.092904 -83.175231 
L 257.808329 -82.166052 
L 257.473357 -81.156872 
L 257.093732 -80.147692 
L 256.676465 -79.138512 
L 256.22954 -78.129332 
L 255.761573 -77.120152 
L 255.281452 -76.110972 
L 254.797982 -75.101792 
L 254.319545 -74.092612 
L 253.853808 -73.083432 
L 253.407481 -72.074252 
L 252.986143 -71.065072 
L 252.594142 -70.055892 
L 252.234555 -69.046712 
L 251.909222 -68.037532 
L 251.618834 -67.028352 
L 251.363054 -66.019172 
L 251.140685 -65.009992 
L 250.94984 -64.000812 
L 250.788124 -62.991632 
L 250.652811 -61.982452 
z
" id="me44bcef220" style="stroke:#464646;stroke-width:1.5;"/>
    </defs>
    <g clip-path="url(#pea954e8f54)">
     <use style="fill:#4fabbc;stroke:#464646;stroke-width:1.5;" x="0" xlink:href="#me44bcef220" y="265.69625"/>
    </g>
   </g>
   <g id="PolyCollection_9">
    <defs>
     <path d="M 278.26313 -53.566939 
L 277.79937 -53.566939 
L 277.7335 -54.79287 
L 277.652651 -56.018801 
L 277.554542 -57.244731 
L 277.436853 -58.470662 
L 277.297312 -59.696593 
L 277.133807 -60.922523 
L 276.944504 -62.148454 
L 276.727988 -63.374385 
L 276.483401 -64.600315 
L 276.210578 -65.826246 
L 275.910182 -67.052176 
L 275.583799 -68.278107 
L 275.234014 -69.504038 
L 274.86444 -70.729968 
L 274.479695 -71.955899 
L 274.085323 -73.18183 
L 273.687664 -74.40776 
L 273.293659 -75.633691 
L 272.910609 -76.859622 
L 272.545901 -78.085552 
L 272.206703 -79.311483 
L 271.899656 -80.537413 
L 271.630577 -81.763344 
L 271.404197 -82.989275 
L 271.223942 -84.215205 
L 271.091787 -85.441136 
L 271.008184 -86.667067 
L 270.972062 -87.892997 
L 270.980924 -89.118928 
L 271.031004 -90.344859 
L 271.117503 -91.570789 
L 271.234862 -92.79672 
L 271.37707 -94.022651 
L 271.537982 -95.248581 
L 271.711626 -96.474512 
L 271.892478 -97.700442 
L 272.075689 -98.926373 
L 272.257262 -100.152304 
L 272.434152 -101.378234 
L 272.604306 -102.604165 
L 272.766636 -103.830096 
L 272.920927 -105.056026 
L 273.06771 -106.281957 
L 273.208085 -107.507888 
L 273.343537 -108.733818 
L 273.475736 -109.959749 
L 273.606354 -111.185679 
L 273.736896 -112.41161 
L 273.868569 -113.637541 
L 274.002178 -114.863471 
L 274.138067 -116.089402 
L 274.276101 -117.315333 
L 274.415686 -118.541263 
L 274.55581 -119.767194 
L 274.695126 -120.993125 
L 274.832043 -122.219055 
L 274.96483 -123.444986 
L 275.091723 -124.670916 
L 275.211034 -125.896847 
L 275.321247 -127.122778 
L 275.421102 -128.348708 
L 275.509672 -129.574639 
L 275.586414 -130.80057 
L 275.651207 -132.0265 
L 275.704368 -133.252431 
L 275.746655 -134.478362 
L 275.779242 -135.704292 
L 275.803684 -136.930223 
L 275.821857 -138.156153 
L 275.835888 -139.382084 
L 275.848067 -140.608015 
L 275.860752 -141.833945 
L 275.876264 -143.059876 
L 275.896789 -144.285807 
L 275.924272 -145.511737 
L 275.960334 -146.737668 
L 276.006197 -147.963599 
L 276.062627 -149.189529 
L 276.129912 -150.41546 
L 276.207851 -151.64139 
L 276.295777 -152.867321 
L 276.392604 -154.093252 
L 276.496891 -155.319182 
L 276.606924 -156.545113 
L 276.720807 -157.771044 
L 276.83656 -158.996974 
L 276.95221 -160.222905 
L 277.065881 -161.448836 
L 277.175865 -162.674766 
L 277.280683 -163.900697 
L 277.379123 -165.126627 
L 277.470267 -166.352558 
L 277.553491 -167.578489 
L 277.628459 -168.804419 
L 277.695097 -170.03035 
L 277.753563 -171.256281 
L 277.804201 -172.482211 
L 277.847509 -173.708142 
L 277.884086 -174.934073 
L 278.178414 -174.934073 
L 278.178414 -174.934073 
L 278.214991 -173.708142 
L 278.258299 -172.482211 
L 278.308937 -171.256281 
L 278.367403 -170.03035 
L 278.434041 -168.804419 
L 278.509009 -167.578489 
L 278.592233 -166.352558 
L 278.683377 -165.126627 
L 278.781817 -163.900697 
L 278.886635 -162.674766 
L 278.996619 -161.448836 
L 279.11029 -160.222905 
L 279.22594 -158.996974 
L 279.341693 -157.771044 
L 279.455576 -156.545113 
L 279.565609 -155.319182 
L 279.669896 -154.093252 
L 279.766723 -152.867321 
L 279.854649 -151.64139 
L 279.932588 -150.41546 
L 279.999873 -149.189529 
L 280.056303 -147.963599 
L 280.102166 -146.737668 
L 280.138228 -145.511737 
L 280.165711 -144.285807 
L 280.186236 -143.059876 
L 280.201748 -141.833945 
L 280.214433 -140.608015 
L 280.226612 -139.382084 
L 280.240643 -138.156153 
L 280.258816 -136.930223 
L 280.283258 -135.704292 
L 280.315845 -134.478362 
L 280.358132 -133.252431 
L 280.411293 -132.0265 
L 280.476086 -130.80057 
L 280.552828 -129.574639 
L 280.641398 -128.348708 
L 280.741253 -127.122778 
L 280.851466 -125.896847 
L 280.970777 -124.670916 
L 281.09767 -123.444986 
L 281.230457 -122.219055 
L 281.367374 -120.993125 
L 281.50669 -119.767194 
L 281.646814 -118.541263 
L 281.786399 -117.315333 
L 281.924433 -116.089402 
L 282.060322 -114.863471 
L 282.193931 -113.637541 
L 282.325604 -112.41161 
L 282.456146 -111.185679 
L 282.586764 -109.959749 
L 282.718963 -108.733818 
L 282.854415 -107.507888 
L 282.99479 -106.281957 
L 283.141573 -105.056026 
L 283.295864 -103.830096 
L 283.458194 -102.604165 
L 283.628348 -101.378234 
L 283.805238 -100.152304 
L 283.986811 -98.926373 
L 284.170022 -97.700442 
L 284.350874 -96.474512 
L 284.524518 -95.248581 
L 284.68543 -94.022651 
L 284.827638 -92.79672 
L 284.944997 -91.570789 
L 285.031496 -90.344859 
L 285.081576 -89.118928 
L 285.090438 -87.892997 
L 285.054316 -86.667067 
L 284.970713 -85.441136 
L 284.838558 -84.215205 
L 284.658303 -82.989275 
L 284.431923 -81.763344 
L 284.162844 -80.537413 
L 283.855797 -79.311483 
L 283.516599 -78.085552 
L 283.151891 -76.859622 
L 282.768841 -75.633691 
L 282.374836 -74.40776 
L 281.977177 -73.18183 
L 281.582805 -71.955899 
L 281.19806 -70.729968 
L 280.828486 -69.504038 
L 280.478701 -68.278107 
L 280.152318 -67.052176 
L 279.851922 -65.826246 
L 279.579099 -64.600315 
L 279.334512 -63.374385 
L 279.117996 -62.148454 
L 278.928693 -60.922523 
L 278.765188 -59.696593 
L 278.625647 -58.470662 
L 278.507958 -57.244731 
L 278.409849 -56.018801 
L 278.329 -54.79287 
L 278.26313 -53.566939 
z
" id="m8690a4f766" style="stroke:#464646;stroke-width:1.5;"/>
    </defs>
    <g clip-path="url(#pea954e8f54)">
     <use style="fill:#6daee2;stroke:#464646;stroke-width:1.5;" x="0" xlink:href="#m8690a4f766" y="265.69625"/>
    </g>
   </g>
   <g id="PolyCollection_10">
    <defs>
     <path d="M 306.085343 -47.439886 
L 305.777157 -47.439886 
L 305.718784 -49.403767 
L 305.642694 -51.367648 
L 305.545167 -53.331529 
L 305.422256 -55.29541 
L 305.269956 -57.259292 
L 305.084434 -59.223173 
L 304.862308 -61.187054 
L 304.600973 -63.150935 
L 304.298951 -65.114816 
L 303.95625 -67.078697 
L 303.57468 -69.042578 
L 303.158117 -71.006459 
L 302.712654 -72.97034 
L 302.246612 -74.934221 
L 301.770387 -76.898102 
L 301.29611 -78.861983 
L 300.837129 -80.825864 
L 300.407332 -82.789745 
L 300.020358 -84.753626 
L 299.688759 -86.717507 
L 299.423191 -88.681388 
L 299.231696 -90.645269 
L 299.119175 -92.60915 
L 299.087084 -94.573031 
L 299.133391 -96.536912 
L 299.252798 -98.500793 
L 299.437199 -100.464674 
L 299.676315 -102.428555 
L 299.958441 -104.392436 
L 300.27123 -106.356317 
L 300.602435 -108.320198 
L 300.940561 -110.284079 
L 301.275374 -112.24796 
L 301.598275 -114.211841 
L 301.902505 -116.175722 
L 302.183237 -118.139603 
L 302.437543 -120.103485 
L 302.66429 -122.067366 
L 302.863959 -124.031247 
L 303.038435 -125.995128 
L 303.190739 -127.959009 
L 303.32475 -129.92289 
L 303.444887 -131.886771 
L 303.555788 -133.850652 
L 303.661981 -135.814533 
L 303.76758 -137.778414 
L 303.876007 -139.742295 
L 303.98979 -141.706176 
L 304.110425 -143.670057 
L 304.238336 -145.633938 
L 304.372922 -147.597819 
L 304.512687 -149.5617 
L 304.655443 -151.525581 
L 304.798549 -153.489462 
L 304.93917 -155.453343 
L 305.074528 -157.417224 
L 305.202117 -159.381105 
L 305.319862 -161.344986 
L 305.426228 -163.308867 
L 305.520259 -165.272748 
L 305.601554 -167.236629 
L 305.67021 -169.20051 
L 305.72672 -171.164391 
L 305.771861 -173.128272 
L 305.806576 -175.092153 
L 305.831865 -177.056034 
L 305.848705 -179.019915 
L 305.857985 -180.983796 
L 305.860478 -182.947678 
L 305.85684 -184.911559 
L 305.847632 -186.87544 
L 305.833363 -188.839321 
L 305.814546 -190.803202 
L 305.791753 -192.767083 
L 305.765672 -194.730964 
L 305.73714 -196.694845 
L 305.707161 -198.658726 
L 305.676899 -200.622607 
L 305.647638 -202.586488 
L 305.620721 -204.550369 
L 305.597464 -206.51425 
L 305.579067 -208.478131 
L 305.566516 -210.442012 
L 305.560504 -212.405893 
L 305.561369 -214.369774 
L 305.569066 -216.333655 
L 305.583173 -218.297536 
L 305.602928 -220.261417 
L 305.627301 -222.225298 
L 305.655078 -224.189179 
L 305.684967 -226.15306 
L 305.71569 -228.116941 
L 305.746078 -230.080822 
L 305.775129 -232.044703 
L 305.802061 -234.008584 
L 305.826329 -235.972465 
L 305.847616 -237.936346 
L 305.865821 -239.900227 
L 305.881011 -241.864108 
L 305.981489 -241.864108 
L 305.981489 -241.864108 
L 305.996679 -239.900227 
L 306.014884 -237.936346 
L 306.036171 -235.972465 
L 306.060439 -234.008584 
L 306.087371 -232.044703 
L 306.116422 -230.080822 
L 306.14681 -228.116941 
L 306.177533 -226.15306 
L 306.207422 -224.189179 
L 306.235199 -222.225298 
L 306.259572 -220.261417 
L 306.279327 -218.297536 
L 306.293434 -216.333655 
L 306.301131 -214.369774 
L 306.301996 -212.405893 
L 306.295984 -210.442012 
L 306.283433 -208.478131 
L 306.265036 -206.51425 
L 306.241779 -204.550369 
L 306.214862 -202.586488 
L 306.185601 -200.622607 
L 306.155339 -198.658726 
L 306.12536 -196.694845 
L 306.096828 -194.730964 
L 306.070747 -192.767083 
L 306.047954 -190.803202 
L 306.029137 -188.839321 
L 306.014868 -186.87544 
L 306.00566 -184.911559 
L 306.002022 -182.947678 
L 306.004515 -180.983796 
L 306.013795 -179.019915 
L 306.030635 -177.056034 
L 306.055924 -175.092153 
L 306.090639 -173.128272 
L 306.13578 -171.164391 
L 306.19229 -169.20051 
L 306.260946 -167.236629 
L 306.342241 -165.272748 
L 306.436272 -163.308867 
L 306.542638 -161.344986 
L 306.660383 -159.381105 
L 306.787972 -157.417224 
L 306.92333 -155.453343 
L 307.063951 -153.489462 
L 307.207057 -151.525581 
L 307.349813 -149.5617 
L 307.489578 -147.597819 
L 307.624164 -145.633938 
L 307.752075 -143.670057 
L 307.87271 -141.706176 
L 307.986493 -139.742295 
L 308.09492 -137.778414 
L 308.200519 -135.814533 
L 308.306712 -133.850652 
L 308.417613 -131.886771 
L 308.53775 -129.92289 
L 308.671761 -127.959009 
L 308.824065 -125.995128 
L 308.998541 -124.031247 
L 309.19821 -122.067366 
L 309.424957 -120.103485 
L 309.679263 -118.139603 
L 309.959995 -116.175722 
L 310.264225 -114.211841 
L 310.587126 -112.24796 
L 310.921939 -110.284079 
L 311.260065 -108.320198 
L 311.59127 -106.356317 
L 311.904059 -104.392436 
L 312.186185 -102.428555 
L 312.425301 -100.464674 
L 312.609702 -98.500793 
L 312.729109 -96.536912 
L 312.775416 -94.573031 
L 312.743325 -92.60915 
L 312.630804 -90.645269 
L 312.439309 -88.681388 
L 312.173741 -86.717507 
L 311.842142 -84.753626 
L 311.455168 -82.789745 
L 311.025371 -80.825864 
L 310.56639 -78.861983 
L 310.092113 -76.898102 
L 309.615888 -74.934221 
L 309.149846 -72.97034 
L 308.704383 -71.006459 
L 308.28782 -69.042578 
L 307.90625 -67.078697 
L 307.563549 -65.114816 
L 307.261527 -63.150935 
L 307.000192 -61.187054 
L 306.778066 -59.223173 
L 306.592544 -57.259292 
L 306.440244 -55.29541 
L 306.317333 -53.331529 
L 306.219806 -51.367648 
L 306.143716 -49.403767 
L 306.085343 -47.439886 
z
" id="m061bbce931" style="stroke:#464646;stroke-width:1.5;"/>
    </defs>
    <g clip-path="url(#pea954e8f54)">
     <use style="fill:#b6a8eb;stroke:#464646;stroke-width:1.5;" x="0" xlink:href="#m061bbce931" y="265.69625"/>
    </g>
   </g>
   <g id="PolyCollection_11">
    <defs>
     <path d="M 334.066216 -49.228146 
L 333.596284 -49.228146 
L 333.506994 -51.206777 
L 333.391519 -53.185408 
L 333.245169 -55.164039 
L 333.063434 -57.14267 
L 332.842365 -59.121301 
L 332.579009 -61.099932 
L 332.271872 -63.078563 
L 331.921359 -65.057194 
L 331.530135 -67.035825 
L 331.103372 -69.014456 
L 330.648803 -70.993087 
L 330.17657 -72.971718 
L 329.698839 -74.950349 
L 329.229189 -76.92898 
L 328.781819 -78.907611 
L 328.370628 -80.886242 
L 328.008257 -82.864873 
L 327.705185 -84.843504 
L 327.468983 -86.822135 
L 327.303796 -88.800766 
L 327.21013 -90.779397 
L 327.18496 -92.758028 
L 327.222156 -94.736659 
L 327.313176 -96.71529 
L 327.447951 -98.693921 
L 327.615858 -100.672552 
L 327.806674 -102.651183 
L 328.011397 -104.629814 
L 328.222869 -106.608445 
L 328.43612 -108.587076 
L 328.648429 -110.565707 
L 328.85913 -112.544338 
L 329.069189 -114.522969 
L 329.280653 -116.5016 
L 329.496042 -118.480231 
L 329.717774 -120.458862 
L 329.947682 -122.437493 
L 330.186685 -124.416124 
L 330.434618 -126.394755 
L 330.69022 -128.373386 
L 330.95126 -130.352017 
L 331.214754 -132.330648 
L 331.477235 -134.309279 
L 331.735035 -136.28791 
L 331.984553 -138.266541 
L 332.222471 -140.245172 
L 332.445932 -142.223803 
L 332.652647 -144.202434 
L 332.840967 -146.181065 
L 333.009897 -148.159696 
L 333.159078 -150.138327 
L 333.288737 -152.116957 
L 333.399611 -154.095588 
L 333.492858 -156.074219 
L 333.569956 -158.05285 
L 333.632594 -160.031481 
L 333.68257 -162.010112 
L 333.721696 -163.988743 
L 333.751711 -165.967374 
L 333.77422 -167.946005 
L 333.790637 -169.924636 
L 333.802162 -171.903267 
L 333.809756 -173.881898 
L 333.814147 -175.860529 
L 333.815833 -177.83916 
L 333.815102 -179.817791 
L 333.812055 -181.796422 
L 333.80664 -183.775053 
L 333.798686 -185.753684 
L 333.787952 -187.732315 
L 333.774173 -189.710946 
L 333.757121 -191.689577 
L 333.736663 -193.668208 
L 333.712824 -195.646839 
L 333.685839 -197.62547 
L 333.656193 -199.604101 
L 333.624639 -201.582732 
L 333.592198 -203.561363 
L 333.560111 -205.539994 
L 333.529778 -207.518625 
L 333.502658 -209.497256 
L 333.480159 -211.475887 
L 333.463515 -213.454518 
L 333.453674 -215.433149 
L 333.451213 -217.41178 
L 333.456277 -219.390411 
L 333.468568 -221.369042 
L 333.487371 -223.347673 
L 333.511626 -225.326304 
L 333.540028 -227.304935 
L 333.571137 -229.283566 
L 333.603503 -231.262197 
L 333.635773 -233.240828 
L 333.666778 -235.219459 
L 333.695593 -237.19809 
L 333.721566 -239.176721 
L 333.744314 -241.155352 
L 333.763703 -243.133983 
L 333.779802 -245.112614 
L 333.882698 -245.112614 
L 333.882698 -245.112614 
L 333.898797 -243.133983 
L 333.918186 -241.155352 
L 333.940934 -239.176721 
L 333.966907 -237.19809 
L 333.995722 -235.219459 
L 334.026727 -233.240828 
L 334.058997 -231.262197 
L 334.091363 -229.283566 
L 334.122472 -227.304935 
L 334.150874 -225.326304 
L 334.175129 -223.347673 
L 334.193932 -221.369042 
L 334.206223 -219.390411 
L 334.211287 -217.41178 
L 334.208826 -215.433149 
L 334.198985 -213.454518 
L 334.182341 -211.475887 
L 334.159842 -209.497256 
L 334.132722 -207.518625 
L 334.102389 -205.539994 
L 334.070302 -203.561363 
L 334.037861 -201.582732 
L 334.006307 -199.604101 
L 333.976661 -197.62547 
L 333.949676 -195.646839 
L 333.925837 -193.668208 
L 333.905379 -191.689577 
L 333.888327 -189.710946 
L 333.874548 -187.732315 
L 333.863814 -185.753684 
L 333.85586 -183.775053 
L 333.850445 -181.796422 
L 333.847398 -179.817791 
L 333.846667 -177.83916 
L 333.848353 -175.860529 
L 333.852744 -173.881898 
L 333.860338 -171.903267 
L 333.871863 -169.924636 
L 333.88828 -167.946005 
L 333.910789 -165.967374 
L 333.940804 -163.988743 
L 333.97993 -162.010112 
L 334.029906 -160.031481 
L 334.092544 -158.05285 
L 334.169642 -156.074219 
L 334.262889 -154.095588 
L 334.373763 -152.116957 
L 334.503422 -150.138327 
L 334.652603 -148.159696 
L 334.821533 -146.181065 
L 335.009853 -144.202434 
L 335.216568 -142.223803 
L 335.440029 -140.245172 
L 335.677947 -138.266541 
L 335.927465 -136.28791 
L 336.185265 -134.309279 
L 336.447746 -132.330648 
L 336.71124 -130.352017 
L 336.97228 -128.373386 
L 337.227882 -126.394755 
L 337.475815 -124.416124 
L 337.714818 -122.437493 
L 337.944726 -120.458862 
L 338.166458 -118.480231 
L 338.381847 -116.5016 
L 338.593311 -114.522969 
L 338.80337 -112.544338 
L 339.014071 -110.565707 
L 339.22638 -108.587076 
L 339.439631 -106.608445 
L 339.651103 -104.629814 
L 339.855826 -102.651183 
L 340.046642 -100.672552 
L 340.214549 -98.693921 
L 340.349324 -96.71529 
L 340.440344 -94.736659 
L 340.47754 -92.758028 
L 340.45237 -90.779397 
L 340.358704 -88.800766 
L 340.193517 -86.822135 
L 339.957315 -84.843504 
L 339.654243 -82.864873 
L 339.291872 -80.886242 
L 338.880681 -78.907611 
L 338.433311 -76.92898 
L 337.963661 -74.950349 
L 337.48593 -72.971718 
L 337.013697 -70.993087 
L 336.559128 -69.014456 
L 336.132365 -67.035825 
L 335.741141 -65.057194 
L 335.390628 -63.078563 
L 335.083491 -61.099932 
L 334.820135 -59.121301 
L 334.599066 -57.14267 
L 334.417331 -55.164039 
L 334.270981 -53.185408 
L 334.155506 -51.206777 
L 334.066216 -49.228146 
z
" id="mf7073071ca" style="stroke:#464646;stroke-width:1.5;"/>
    </defs>
    <g clip-path="url(#pea954e8f54)">
     <use style="fill:#df8fe7;stroke:#464646;stroke-width:1.5;" x="0" xlink:href="#mf7073071ca" y="265.69625"/>
    </g>
   </g>
   <g id="PolyCollection_12">
    <defs>
     <path d="M 362.022572 -53.473213 
L 361.439928 -53.473213 
L 361.333846 -55.081213 
L 361.198768 -56.689213 
L 361.030357 -58.297213 
L 360.82481 -59.905214 
L 360.579266 -61.513214 
L 360.292239 -63.121214 
L 359.964006 -64.729214 
L 359.596909 -66.337215 
L 359.19551 -67.945215 
L 358.766571 -69.553215 
L 358.318816 -71.161216 
L 357.862498 -72.769216 
L 357.408784 -74.377216 
L 356.969031 -75.985216 
L 356.554012 -77.593217 
L 356.173193 -79.201217 
L 355.834126 -80.809217 
L 355.542036 -82.417217 
L 355.29963 -84.025218 
L 355.107135 -85.633218 
L 354.962552 -87.241218 
L 354.86207 -88.849218 
L 354.800586 -90.457219 
L 354.772269 -92.065219 
L 354.771113 -93.673219 
L 354.791437 -95.281219 
L 354.8283 -96.88922 
L 354.877828 -98.49722 
L 354.937436 -100.10522 
L 355.005954 -101.71322 
L 355.083642 -103.321221 
L 355.172113 -104.929221 
L 355.274136 -106.537221 
L 355.393346 -108.145221 
L 355.533854 -109.753222 
L 355.699785 -111.361222 
L 355.894784 -112.969222 
L 356.12153 -114.577222 
L 356.381305 -116.185223 
L 356.673688 -117.793223 
L 356.996387 -119.401223 
L 357.345253 -121.009223 
L 357.714478 -122.617224 
L 358.096944 -124.225224 
L 358.484695 -125.833224 
L 358.869484 -127.441224 
L 359.243318 -129.049225 
L 359.598964 -130.657225 
L 359.930357 -132.265225 
L 360.232877 -133.873225 
L 360.503489 -135.481226 
L 360.740744 -137.089226 
L 360.944651 -138.697226 
L 361.116471 -140.305226 
L 361.258435 -141.913227 
L 361.373458 -143.521227 
L 361.464837 -145.129227 
L 361.536 -146.737227 
L 361.590286 -148.345228 
L 361.630782 -149.953228 
L 361.660217 -151.561228 
L 361.680895 -153.169228 
L 361.694678 -154.777229 
L 361.70299 -156.385229 
L 361.70685 -157.993229 
L 361.706913 -159.601229 
L 361.703529 -161.20923 
L 361.696799 -162.81723 
L 361.686642 -164.42523 
L 361.672864 -166.03323 
L 361.655237 -167.641231 
L 361.633569 -169.249231 
L 361.607789 -170.857231 
L 361.578015 -172.465231 
L 361.544617 -174.073232 
L 361.508264 -175.681232 
L 361.469931 -177.289232 
L 361.430894 -178.897232 
L 361.392667 -180.505233 
L 361.356924 -182.113233 
L 361.325377 -183.721233 
L 361.299649 -185.329233 
L 361.281131 -186.937234 
L 361.27086 -188.545234 
L 361.269427 -190.153234 
L 361.276913 -191.761234 
L 361.292888 -193.369235 
L 361.316448 -194.977235 
L 361.346304 -196.585235 
L 361.380892 -198.193235 
L 361.418515 -199.801236 
L 361.457475 -201.409236 
L 361.496199 -203.017236 
L 361.533333 -204.625237 
L 361.56781 -206.233237 
L 361.598882 -207.841237 
L 361.626112 -209.449237 
L 361.649348 -211.057238 
L 361.668679 -212.665238 
L 361.793821 -212.665238 
L 361.793821 -212.665238 
L 361.813152 -211.057238 
L 361.836388 -209.449237 
L 361.863618 -207.841237 
L 361.89469 -206.233237 
L 361.929167 -204.625237 
L 361.966301 -203.017236 
L 362.005025 -201.409236 
L 362.043985 -199.801236 
L 362.081608 -198.193235 
L 362.116196 -196.585235 
L 362.146052 -194.977235 
L 362.169612 -193.369235 
L 362.185587 -191.761234 
L 362.193073 -190.153234 
L 362.19164 -188.545234 
L 362.181369 -186.937234 
L 362.162851 -185.329233 
L 362.137123 -183.721233 
L 362.105576 -182.113233 
L 362.069833 -180.505233 
L 362.031606 -178.897232 
L 361.992569 -177.289232 
L 361.954236 -175.681232 
L 361.917883 -174.073232 
L 361.884485 -172.465231 
L 361.854711 -170.857231 
L 361.828931 -169.249231 
L 361.807263 -167.641231 
L 361.789636 -166.03323 
L 361.775858 -164.42523 
L 361.765701 -162.81723 
L 361.758971 -161.20923 
L 361.755587 -159.601229 
L 361.75565 -157.993229 
L 361.75951 -156.385229 
L 361.767822 -154.777229 
L 361.781605 -153.169228 
L 361.802283 -151.561228 
L 361.831718 -149.953228 
L 361.872214 -148.345228 
L 361.9265 -146.737227 
L 361.997663 -145.129227 
L 362.089042 -143.521227 
L 362.204065 -141.913227 
L 362.346029 -140.305226 
L 362.517849 -138.697226 
L 362.721756 -137.089226 
L 362.959011 -135.481226 
L 363.229623 -133.873225 
L 363.532143 -132.265225 
L 363.863536 -130.657225 
L 364.219182 -129.049225 
L 364.593016 -127.441224 
L 364.977805 -125.833224 
L 365.365556 -124.225224 
L 365.748022 -122.617224 
L 366.117247 -121.009223 
L 366.466113 -119.401223 
L 366.788812 -117.793223 
L 367.081195 -116.185223 
L 367.34097 -114.577222 
L 367.567716 -112.969222 
L 367.762715 -111.361222 
L 367.928646 -109.753222 
L 368.069154 -108.145221 
L 368.188364 -106.537221 
L 368.290387 -104.929221 
L 368.378858 -103.321221 
L 368.456546 -101.71322 
L 368.525064 -100.10522 
L 368.584672 -98.49722 
L 368.6342 -96.88922 
L 368.671063 -95.281219 
L 368.691387 -93.673219 
L 368.690231 -92.065219 
L 368.661914 -90.457219 
L 368.60043 -88.849218 
L 368.499948 -87.241218 
L 368.355365 -85.633218 
L 368.16287 -84.025218 
L 367.920464 -82.417217 
L 367.628374 -80.809217 
L 367.289307 -79.201217 
L 366.908488 -77.593217 
L 366.493469 -75.985216 
L 366.053716 -74.377216 
L 365.600002 -72.769216 
L 365.143684 -71.161216 
L 364.695929 -69.553215 
L 364.26699 -67.945215 
L 363.865591 -66.337215 
L 363.498494 -64.729214 
L 363.170261 -63.121214 
L 362.883234 -61.513214 
L 362.63769 -59.905214 
L 362.432143 -58.297213 
L 362.263732 -56.689213 
L 362.128654 -55.081213 
L 362.022572 -53.473213 
z
" id="mac87cfbbd1" style="stroke:#464646;stroke-width:1.5;"/>
    </defs>
    <g clip-path="url(#pea954e8f54)">
     <use style="fill:#e890c6;stroke:#464646;stroke-width:1.5;" x="0" xlink:href="#mac87cfbbd1" y="265.69625"/>
    </g>
   </g>
   <g id="matplotlib.axis_1">
    <g id="xtick_1">
     <g id="line2d_1">
      <defs>
       <path d="M 0 0 
L 0 3.5 
" id="m9ae0521698" style="stroke:#000000;stroke-width:0.8;"/>
      </defs>
      <g>
       <use style="stroke:#000000;stroke-width:0.8;" x="54.83125" xlink:href="#m9ae0521698" y="228.14"/>
      </g>
     </g>
     <g id="text_1">
      <!-- 1 -->
      <defs>
       <path d="M 12.40625 8.296875 
L 28.515625 8.296875 
L 28.515625 63.921875 
L 10.984375 60.40625 
L 10.984375 69.390625 
L 28.421875 72.90625 
L 38.28125 72.90625 
L 38.28125 8.296875 
L 54.390625 8.296875 
L 54.390625 0 
L 12.40625 0 
z
" id="DejaVuSans-49"/>
      </defs>
      <g transform="translate(51.65 242.738437)scale(0.1 -0.1)">
       <use xlink:href="#DejaVuSans-49"/>
      </g>
     </g>
    </g>
    <g id="xtick_2">
     <g id="line2d_2">
      <g>
       <use style="stroke:#000000;stroke-width:0.8;" x="82.73125" xlink:href="#m9ae0521698" y="228.14"/>
      </g>
     </g>
     <g id="text_2">
      <!-- 2 -->
      <defs>
       <path d="M 19.1875 8.296875 
L 53.609375 8.296875 
L 53.609375 0 
L 7.328125 0 
L 7.328125 8.296875 
Q 12.9375 14.109375 22.625 23.890625 
Q 32.328125 33.6875 34.8125 36.53125 
Q 39.546875 41.84375 41.421875 45.53125 
Q 43.3125 49.21875 43.3125 52.78125 
Q 43.3125 58.59375 39.234375 62.25 
Q 35.15625 65.921875 28.609375 65.921875 
Q 23.96875 65.921875 18.8125 64.3125 
Q 13.671875 62.703125 7.8125 59.421875 
L 7.8125 69.390625 
Q 13.765625 71.78125 18.9375 73 
Q 24.125 74.21875 28.421875 74.21875 
Q 39.75 74.21875 46.484375 68.546875 
Q 53.21875 62.890625 53.21875 53.421875 
Q 53.21875 48.921875 51.53125 44.890625 
Q 49.859375 40.875 45.40625 35.40625 
Q 44.1875 33.984375 37.640625 27.21875 
Q 31.109375 20.453125 19.1875 8.296875 
z
" id="DejaVuSans-50"/>
      </defs>
      <g transform="translate(79.55 242.738437)scale(0.1 -0.1)">
       <use xlink:href="#DejaVuSans-50"/>
      </g>
     </g>
    </g>
    <g id="xtick_3">
     <g id="line2d_3">
      <g>
       <use style="stroke:#000000;stroke-width:0.8;" x="110.63125" xlink:href="#m9ae0521698" y="228.14"/>
      </g>
     </g>
     <g id="text_3">
      <!-- 3 -->
      <defs>
       <path d="M 40.578125 39.3125 
Q 47.65625 37.796875 51.625 33 
Q 55.609375 28.21875 55.609375 21.1875 
Q 55.609375 10.40625 48.1875 4.484375 
Q 40.765625 -1.421875 27.09375 -1.421875 
Q 22.515625 -1.421875 17.65625 -0.515625 
Q 12.796875 0.390625 7.625 2.203125 
L 7.625 11.71875 
Q 11.71875 9.328125 16.59375 8.109375 
Q 21.484375 6.890625 26.8125 6.890625 
Q 36.078125 6.890625 40.9375 10.546875 
Q 45.796875 14.203125 45.796875 21.1875 
Q 45.796875 27.640625 41.28125 31.265625 
Q 36.765625 34.90625 28.71875 34.90625 
L 20.21875 34.90625 
L 20.21875 43.015625 
L 29.109375 43.015625 
Q 36.375 43.015625 40.234375 45.921875 
Q 44.09375 48.828125 44.09375 54.296875 
Q 44.09375 59.90625 40.109375 62.90625 
Q 36.140625 65.921875 28.71875 65.921875 
Q 24.65625 65.921875 20.015625 65.03125 
Q 15.375 64.15625 9.8125 62.3125 
L 9.8125 71.09375 
Q 15.4375 72.65625 20.34375 73.4375 
Q 25.25 74.21875 29.59375 74.21875 
Q 40.828125 74.21875 47.359375 69.109375 
Q 53.90625 64.015625 53.90625 55.328125 
Q 53.90625 49.265625 50.4375 45.09375 
Q 46.96875 40.921875 40.578125 39.3125 
z
" id="DejaVuSans-51"/>
      </defs>
      <g transform="translate(107.45 242.738437)scale(0.1 -0.1)">
       <use xlink:href="#DejaVuSans-51"/>
      </g>
     </g>
    </g>
    <g id="xtick_4">
     <g id="line2d_4">
      <g>
       <use style="stroke:#000000;stroke-width:0.8;" x="138.53125" xlink:href="#m9ae0521698" y="228.14"/>
      </g>
     </g>
     <g id="text_4">
      <!-- 4 -->
      <defs>
       <path d="M 37.796875 64.3125 
L 12.890625 25.390625 
L 37.796875 25.390625 
z
M 35.203125 72.90625 
L 47.609375 72.90625 
L 47.609375 25.390625 
L 58.015625 25.390625 
L 58.015625 17.1875 
L 47.609375 17.1875 
L 47.609375 0 
L 37.796875 0 
L 37.796875 17.1875 
L 4.890625 17.1875 
L 4.890625 26.703125 
z
" id="DejaVuSans-52"/>
      </defs>
      <g transform="translate(135.35 242.738437)scale(0.1 -0.1)">
       <use xlink:href="#DejaVuSans-52"/>
      </g>
     </g>
    </g>
    <g id="xtick_5">
     <g id="line2d_5">
      <g>
       <use style="stroke:#000000;stroke-width:0.8;" x="166.43125" xlink:href="#m9ae0521698" y="228.14"/>
      </g>
     </g>
     <g id="text_5">
      <!-- 5 -->
      <defs>
       <path d="M 10.796875 72.90625 
L 49.515625 72.90625 
L 49.515625 64.59375 
L 19.828125 64.59375 
L 19.828125 46.734375 
Q 21.96875 47.46875 24.109375 47.828125 
Q 26.265625 48.1875 28.421875 48.1875 
Q 40.625 48.1875 47.75 41.5 
Q 54.890625 34.8125 54.890625 23.390625 
Q 54.890625 11.625 47.5625 5.09375 
Q 40.234375 -1.421875 26.90625 -1.421875 
Q 22.3125 -1.421875 17.546875 -0.640625 
Q 12.796875 0.140625 7.71875 1.703125 
L 7.71875 11.625 
Q 12.109375 9.234375 16.796875 8.0625 
Q 21.484375 6.890625 26.703125 6.890625 
Q 35.15625 6.890625 40.078125 11.328125 
Q 45.015625 15.765625 45.015625 23.390625 
Q 45.015625 31 40.078125 35.4375 
Q 35.15625 39.890625 26.703125 39.890625 
Q 22.75 39.890625 18.8125 39.015625 
Q 14.890625 38.140625 10.796875 36.28125 
z
" id="DejaVuSans-53"/>
      </defs>
      <g transform="translate(163.25 242.738437)scale(0.1 -0.1)">
       <use xlink:href="#DejaVuSans-53"/>
      </g>
     </g>
    </g>
    <g id="xtick_6">
     <g id="line2d_6">
      <g>
       <use style="stroke:#000000;stroke-width:0.8;" x="194.33125" xlink:href="#m9ae0521698" y="228.14"/>
      </g>
     </g>
     <g id="text_6">
      <!-- 6 -->
      <defs>
       <path d="M 33.015625 40.375 
Q 26.375 40.375 22.484375 35.828125 
Q 18.609375 31.296875 18.609375 23.390625 
Q 18.609375 15.53125 22.484375 10.953125 
Q 26.375 6.390625 33.015625 6.390625 
Q 39.65625 6.390625 43.53125 10.953125 
Q 47.40625 15.53125 47.40625 23.390625 
Q 47.40625 31.296875 43.53125 35.828125 
Q 39.65625 40.375 33.015625 40.375 
z
M 52.59375 71.296875 
L 52.59375 62.3125 
Q 48.875 64.0625 45.09375 64.984375 
Q 41.3125 65.921875 37.59375 65.921875 
Q 27.828125 65.921875 22.671875 59.328125 
Q 17.53125 52.734375 16.796875 39.40625 
Q 19.671875 43.65625 24.015625 45.921875 
Q 28.375 48.1875 33.59375 48.1875 
Q 44.578125 48.1875 50.953125 41.515625 
Q 57.328125 34.859375 57.328125 23.390625 
Q 57.328125 12.15625 50.6875 5.359375 
Q 44.046875 -1.421875 33.015625 -1.421875 
Q 20.359375 -1.421875 13.671875 8.265625 
Q 6.984375 17.96875 6.984375 36.375 
Q 6.984375 53.65625 15.1875 63.9375 
Q 23.390625 74.21875 37.203125 74.21875 
Q 40.921875 74.21875 44.703125 73.484375 
Q 48.484375 72.75 52.59375 71.296875 
z
" id="DejaVuSans-54"/>
      </defs>
      <g transform="translate(191.15 242.738437)scale(0.1 -0.1)">
       <use xlink:href="#DejaVuSans-54"/>
      </g>
     </g>
    </g>
    <g id="xtick_7">
     <g id="line2d_7">
      <g>
       <use style="stroke:#000000;stroke-width:0.8;" x="222.23125" xlink:href="#m9ae0521698" y="228.14"/>
      </g>
     </g>
     <g id="text_7">
      <!-- 7 -->
      <defs>
       <path d="M 8.203125 72.90625 
L 55.078125 72.90625 
L 55.078125 68.703125 
L 28.609375 0 
L 18.3125 0 
L 43.21875 64.59375 
L 8.203125 64.59375 
z
" id="DejaVuSans-55"/>
      </defs>
      <g transform="translate(219.05 242.738437)scale(0.1 -0.1)">
       <use xlink:href="#DejaVuSans-55"/>
      </g>
     </g>
    </g>
    <g id="xtick_8">
     <g id="line2d_8">
      <g>
       <use style="stroke:#000000;stroke-width:0.8;" x="250.13125" xlink:href="#m9ae0521698" y="228.14"/>
      </g>
     </g>
     <g id="text_8">
      <!-- 8 -->
      <defs>
       <path d="M 31.78125 34.625 
Q 24.75 34.625 20.71875 30.859375 
Q 16.703125 27.09375 16.703125 20.515625 
Q 16.703125 13.921875 20.71875 10.15625 
Q 24.75 6.390625 31.78125 6.390625 
Q 38.8125 6.390625 42.859375 10.171875 
Q 46.921875 13.96875 46.921875 20.515625 
Q 46.921875 27.09375 42.890625 30.859375 
Q 38.875 34.625 31.78125 34.625 
z
M 21.921875 38.8125 
Q 15.578125 40.375 12.03125 44.71875 
Q 8.5 49.078125 8.5 55.328125 
Q 8.5 64.0625 14.71875 69.140625 
Q 20.953125 74.21875 31.78125 74.21875 
Q 42.671875 74.21875 48.875 69.140625 
Q 55.078125 64.0625 55.078125 55.328125 
Q 55.078125 49.078125 51.53125 44.71875 
Q 48 40.375 41.703125 38.8125 
Q 48.828125 37.15625 52.796875 32.3125 
Q 56.78125 27.484375 56.78125 20.515625 
Q 56.78125 9.90625 50.3125 4.234375 
Q 43.84375 -1.421875 31.78125 -1.421875 
Q 19.734375 -1.421875 13.25 4.234375 
Q 6.78125 9.90625 6.78125 20.515625 
Q 6.78125 27.484375 10.78125 32.3125 
Q 14.796875 37.15625 21.921875 38.8125 
z
M 18.3125 54.390625 
Q 18.3125 48.734375 21.84375 45.5625 
Q 25.390625 42.390625 31.78125 42.390625 
Q 38.140625 42.390625 41.71875 45.5625 
Q 45.3125 48.734375 45.3125 54.390625 
Q 45.3125 60.0625 41.71875 63.234375 
Q 38.140625 66.40625 31.78125 66.40625 
Q 25.390625 66.40625 21.84375 63.234375 
Q 18.3125 60.0625 18.3125 54.390625 
z
" id="DejaVuSans-56"/>
      </defs>
      <g transform="translate(246.95 242.738437)scale(0.1 -0.1)">
       <use xlink:href="#DejaVuSans-56"/>
      </g>
     </g>
    </g>
    <g id="xtick_9">
     <g id="line2d_9">
      <g>
       <use style="stroke:#000000;stroke-width:0.8;" x="278.03125" xlink:href="#m9ae0521698" y="228.14"/>
      </g>
     </g>
     <g id="text_9">
      <!-- 9 -->
      <defs>
       <path d="M 10.984375 1.515625 
L 10.984375 10.5 
Q 14.703125 8.734375 18.5 7.8125 
Q 22.3125 6.890625 25.984375 6.890625 
Q 35.75 6.890625 40.890625 13.453125 
Q 46.046875 20.015625 46.78125 33.40625 
Q 43.953125 29.203125 39.59375 26.953125 
Q 35.25 24.703125 29.984375 24.703125 
Q 19.046875 24.703125 12.671875 31.3125 
Q 6.296875 37.9375 6.296875 49.421875 
Q 6.296875 60.640625 12.9375 67.421875 
Q 19.578125 74.21875 30.609375 74.21875 
Q 43.265625 74.21875 49.921875 64.515625 
Q 56.59375 54.828125 56.59375 36.375 
Q 56.59375 19.140625 48.40625 8.859375 
Q 40.234375 -1.421875 26.421875 -1.421875 
Q 22.703125 -1.421875 18.890625 -0.6875 
Q 15.09375 0.046875 10.984375 1.515625 
z
M 30.609375 32.421875 
Q 37.25 32.421875 41.125 36.953125 
Q 45.015625 41.5 45.015625 49.421875 
Q 45.015625 57.28125 41.125 61.84375 
Q 37.25 66.40625 30.609375 66.40625 
Q 23.96875 66.40625 20.09375 61.84375 
Q 16.21875 57.28125 16.21875 49.421875 
Q 16.21875 41.5 20.09375 36.953125 
Q 23.96875 32.421875 30.609375 32.421875 
z
" id="DejaVuSans-57"/>
      </defs>
      <g transform="translate(274.85 242.738437)scale(0.1 -0.1)">
       <use xlink:href="#DejaVuSans-57"/>
      </g>
     </g>
    </g>
    <g id="xtick_10">
     <g id="line2d_10">
      <g>
       <use style="stroke:#000000;stroke-width:0.8;" x="305.93125" xlink:href="#m9ae0521698" y="228.14"/>
      </g>
     </g>
     <g id="text_10">
      <!-- 10 -->
      <defs>
       <path d="M 31.78125 66.40625 
Q 24.171875 66.40625 20.328125 58.90625 
Q 16.5 51.421875 16.5 36.375 
Q 16.5 21.390625 20.328125 13.890625 
Q 24.171875 6.390625 31.78125 6.390625 
Q 39.453125 6.390625 43.28125 13.890625 
Q 47.125 21.390625 47.125 36.375 
Q 47.125 51.421875 43.28125 58.90625 
Q 39.453125 66.40625 31.78125 66.40625 
z
M 31.78125 74.21875 
Q 44.046875 74.21875 50.515625 64.515625 
Q 56.984375 54.828125 56.984375 36.375 
Q 56.984375 17.96875 50.515625 8.265625 
Q 44.046875 -1.421875 31.78125 -1.421875 
Q 19.53125 -1.421875 13.0625 8.265625 
Q 6.59375 17.96875 6.59375 36.375 
Q 6.59375 54.828125 13.0625 64.515625 
Q 19.53125 74.21875 31.78125 74.21875 
z
" id="DejaVuSans-48"/>
      </defs>
      <g transform="translate(299.56875 242.738437)scale(0.1 -0.1)">
       <use xlink:href="#DejaVuSans-49"/>
       <use x="63.623047" xlink:href="#DejaVuSans-48"/>
      </g>
     </g>
    </g>
    <g id="xtick_11">
     <g id="line2d_11">
      <g>
       <use style="stroke:#000000;stroke-width:0.8;" x="333.83125" xlink:href="#m9ae0521698" y="228.14"/>
      </g>
     </g>
     <g id="text_11">
      <!-- 11 -->
      <g transform="translate(327.46875 242.738437)scale(0.1 -0.1)">
       <use xlink:href="#DejaVuSans-49"/>
       <use x="63.623047" xlink:href="#DejaVuSans-49"/>
      </g>
     </g>
    </g>
    <g id="xtick_12">
     <g id="line2d_12">
      <g>
       <use style="stroke:#000000;stroke-width:0.8;" x="361.73125" xlink:href="#m9ae0521698" y="228.14"/>
      </g>
     </g>
     <g id="text_12">
      <!-- 12 -->
      <g transform="translate(355.36875 242.738437)scale(0.1 -0.1)">
       <use xlink:href="#DejaVuSans-49"/>
       <use x="63.623047" xlink:href="#DejaVuSans-50"/>
      </g>
     </g>
    </g>
    <g id="text_13">
     <!-- date -->
     <defs>
      <path d="M 45.40625 46.390625 
L 45.40625 75.984375 
L 54.390625 75.984375 
L 54.390625 0 
L 45.40625 0 
L 45.40625 8.203125 
Q 42.578125 3.328125 38.25 0.953125 
Q 33.9375 -1.421875 27.875 -1.421875 
Q 17.96875 -1.421875 11.734375 6.484375 
Q 5.515625 14.40625 5.515625 27.296875 
Q 5.515625 40.1875 11.734375 48.09375 
Q 17.96875 56 27.875 56 
Q 33.9375 56 38.25 53.625 
Q 42.578125 51.265625 45.40625 46.390625 
z
M 14.796875 27.296875 
Q 14.796875 17.390625 18.875 11.75 
Q 22.953125 6.109375 30.078125 6.109375 
Q 37.203125 6.109375 41.296875 11.75 
Q 45.40625 17.390625 45.40625 27.296875 
Q 45.40625 37.203125 41.296875 42.84375 
Q 37.203125 48.484375 30.078125 48.484375 
Q 22.953125 48.484375 18.875 42.84375 
Q 14.796875 37.203125 14.796875 27.296875 
z
" id="DejaVuSans-100"/>
      <path d="M 34.28125 27.484375 
Q 23.390625 27.484375 19.1875 25 
Q 14.984375 22.515625 14.984375 16.5 
Q 14.984375 11.71875 18.140625 8.90625 
Q 21.296875 6.109375 26.703125 6.109375 
Q 34.1875 6.109375 38.703125 11.40625 
Q 43.21875 16.703125 43.21875 25.484375 
L 43.21875 27.484375 
z
M 52.203125 31.203125 
L 52.203125 0 
L 43.21875 0 
L 43.21875 8.296875 
Q 40.140625 3.328125 35.546875 0.953125 
Q 30.953125 -1.421875 24.3125 -1.421875 
Q 15.921875 -1.421875 10.953125 3.296875 
Q 6 8.015625 6 15.921875 
Q 6 25.140625 12.171875 29.828125 
Q 18.359375 34.515625 30.609375 34.515625 
L 43.21875 34.515625 
L 43.21875 35.40625 
Q 43.21875 41.609375 39.140625 45 
Q 35.0625 48.390625 27.6875 48.390625 
Q 23 48.390625 18.546875 47.265625 
Q 14.109375 46.140625 10.015625 43.890625 
L 10.015625 52.203125 
Q 14.9375 54.109375 19.578125 55.046875 
Q 24.21875 56 28.609375 56 
Q 40.484375 56 46.34375 49.84375 
Q 52.203125 43.703125 52.203125 31.203125 
z
" id="DejaVuSans-97"/>
      <path d="M 18.3125 70.21875 
L 18.3125 54.6875 
L 36.8125 54.6875 
L 36.8125 47.703125 
L 18.3125 47.703125 
L 18.3125 18.015625 
Q 18.3125 11.328125 20.140625 9.421875 
Q 21.96875 7.515625 27.59375 7.515625 
L 36.8125 7.515625 
L 36.8125 0 
L 27.59375 0 
Q 17.1875 0 13.234375 3.875 
Q 9.28125 7.765625 9.28125 18.015625 
L 9.28125 47.703125 
L 2.6875 47.703125 
L 2.6875 54.6875 
L 9.28125 54.6875 
L 9.28125 70.21875 
z
" id="DejaVuSans-116"/>
      <path d="M 56.203125 29.59375 
L 56.203125 25.203125 
L 14.890625 25.203125 
Q 15.484375 15.921875 20.484375 11.0625 
Q 25.484375 6.203125 34.421875 6.203125 
Q 39.59375 6.203125 44.453125 7.46875 
Q 49.3125 8.734375 54.109375 11.28125 
L 54.109375 2.78125 
Q 49.265625 0.734375 44.1875 -0.34375 
Q 39.109375 -1.421875 33.890625 -1.421875 
Q 20.796875 -1.421875 13.15625 6.1875 
Q 5.515625 13.8125 5.515625 26.8125 
Q 5.515625 40.234375 12.765625 48.109375 
Q 20.015625 56 32.328125 56 
Q 43.359375 56 49.78125 48.890625 
Q 56.203125 41.796875 56.203125 29.59375 
z
M 47.21875 32.234375 
Q 47.125 39.59375 43.09375 43.984375 
Q 39.0625 48.390625 32.421875 48.390625 
Q 24.90625 48.390625 20.390625 44.140625 
Q 15.875 39.890625 15.1875 32.171875 
z
" id="DejaVuSans-101"/>
     </defs>
     <g transform="translate(197.00625 256.416562)scale(0.1 -0.1)">
      <use xlink:href="#DejaVuSans-100"/>
      <use x="63.476562" xlink:href="#DejaVuSans-97"/>
      <use x="124.755859" xlink:href="#DejaVuSans-116"/>
      <use x="163.964844" xlink:href="#DejaVuSans-101"/>
     </g>
    </g>
   </g>
   <g id="matplotlib.axis_2">
    <g id="ytick_1">
     <g id="line2d_13">
      <defs>
       <path d="M 0 0 
L -3.5 0 
" id="m169796c8a3" style="stroke:#000000;stroke-width:0.8;"/>
      </defs>
      <g>
       <use style="stroke:#000000;stroke-width:0.8;" x="40.88125" xlink:href="#m169796c8a3" y="216.706425"/>
      </g>
     </g>
     <g id="text_14">
      <!-- 0 -->
      <g transform="translate(27.51875 220.505644)scale(0.1 -0.1)">
       <use xlink:href="#DejaVuSans-48"/>
      </g>
     </g>
    </g>
    <g id="ytick_2">
     <g id="line2d_14">
      <g>
       <use style="stroke:#000000;stroke-width:0.8;" x="40.88125" xlink:href="#m169796c8a3" y="189.873787"/>
      </g>
     </g>
     <g id="text_15">
      <!-- 10 -->
      <g transform="translate(21.15625 193.673006)scale(0.1 -0.1)">
       <use xlink:href="#DejaVuSans-49"/>
       <use x="63.623047" xlink:href="#DejaVuSans-48"/>
      </g>
     </g>
    </g>
    <g id="ytick_3">
     <g id="line2d_15">
      <g>
       <use style="stroke:#000000;stroke-width:0.8;" x="40.88125" xlink:href="#m169796c8a3" y="163.041149"/>
      </g>
     </g>
     <g id="text_16">
      <!-- 20 -->
      <g transform="translate(21.15625 166.840368)scale(0.1 -0.1)">
       <use xlink:href="#DejaVuSans-50"/>
       <use x="63.623047" xlink:href="#DejaVuSans-48"/>
      </g>
     </g>
    </g>
    <g id="ytick_4">
     <g id="line2d_16">
      <g>
       <use style="stroke:#000000;stroke-width:0.8;" x="40.88125" xlink:href="#m169796c8a3" y="136.208511"/>
      </g>
     </g>
     <g id="text_17">
      <!-- 30 -->
      <g transform="translate(21.15625 140.00773)scale(0.1 -0.1)">
       <use xlink:href="#DejaVuSans-51"/>
       <use x="63.623047" xlink:href="#DejaVuSans-48"/>
      </g>
     </g>
    </g>
    <g id="ytick_5">
     <g id="line2d_17">
      <g>
       <use style="stroke:#000000;stroke-width:0.8;" x="40.88125" xlink:href="#m169796c8a3" y="109.375873"/>
      </g>
     </g>
     <g id="text_18">
      <!-- 40 -->
      <g transform="translate(21.15625 113.175092)scale(0.1 -0.1)">
       <use xlink:href="#DejaVuSans-52"/>
       <use x="63.623047" xlink:href="#DejaVuSans-48"/>
      </g>
     </g>
    </g>
    <g id="ytick_6">
     <g id="line2d_18">
      <g>
       <use style="stroke:#000000;stroke-width:0.8;" x="40.88125" xlink:href="#m169796c8a3" y="82.543235"/>
      </g>
     </g>
     <g id="text_19">
      <!-- 50 -->
      <g transform="translate(21.15625 86.342454)scale(0.1 -0.1)">
       <use xlink:href="#DejaVuSans-53"/>
       <use x="63.623047" xlink:href="#DejaVuSans-48"/>
      </g>
     </g>
    </g>
    <g id="ytick_7">
     <g id="line2d_19">
      <g>
       <use style="stroke:#000000;stroke-width:0.8;" x="40.88125" xlink:href="#m169796c8a3" y="55.710597"/>
      </g>
     </g>
     <g id="text_20">
      <!-- 60 -->
      <g transform="translate(21.15625 59.509816)scale(0.1 -0.1)">
       <use xlink:href="#DejaVuSans-54"/>
       <use x="63.623047" xlink:href="#DejaVuSans-48"/>
      </g>
     </g>
    </g>
    <g id="ytick_8">
     <g id="line2d_20">
      <g>
       <use style="stroke:#000000;stroke-width:0.8;" x="40.88125" xlink:href="#m169796c8a3" y="28.877959"/>
      </g>
     </g>
     <g id="text_21">
      <!-- 70 -->
      <g transform="translate(21.15625 32.677178)scale(0.1 -0.1)">
       <use xlink:href="#DejaVuSans-55"/>
       <use x="63.623047" xlink:href="#DejaVuSans-48"/>
      </g>
     </g>
    </g>
    <g id="text_22">
     <!-- vix_close -->
     <defs>
      <path d="M 2.984375 54.6875 
L 12.5 54.6875 
L 29.59375 8.796875 
L 46.6875 54.6875 
L 56.203125 54.6875 
L 35.6875 0 
L 23.484375 0 
z
" id="DejaVuSans-118"/>
      <path d="M 9.421875 54.6875 
L 18.40625 54.6875 
L 18.40625 0 
L 9.421875 0 
z
M 9.421875 75.984375 
L 18.40625 75.984375 
L 18.40625 64.59375 
L 9.421875 64.59375 
z
" id="DejaVuSans-105"/>
      <path d="M 54.890625 54.6875 
L 35.109375 28.078125 
L 55.90625 0 
L 45.3125 0 
L 29.390625 21.484375 
L 13.484375 0 
L 2.875 0 
L 24.125 28.609375 
L 4.6875 54.6875 
L 15.28125 54.6875 
L 29.78125 35.203125 
L 44.28125 54.6875 
z
" id="DejaVuSans-120"/>
      <path d="M 50.984375 -16.609375 
L 50.984375 -23.578125 
L -0.984375 -23.578125 
L -0.984375 -16.609375 
z
" id="DejaVuSans-95"/>
      <path d="M 48.78125 52.59375 
L 48.78125 44.1875 
Q 44.96875 46.296875 41.140625 47.34375 
Q 37.3125 48.390625 33.40625 48.390625 
Q 24.65625 48.390625 19.8125 42.84375 
Q 14.984375 37.3125 14.984375 27.296875 
Q 14.984375 17.28125 19.8125 11.734375 
Q 24.65625 6.203125 33.40625 6.203125 
Q 37.3125 6.203125 41.140625 7.25 
Q 44.96875 8.296875 48.78125 10.40625 
L 48.78125 2.09375 
Q 45.015625 0.34375 40.984375 -0.53125 
Q 36.96875 -1.421875 32.421875 -1.421875 
Q 20.0625 -1.421875 12.78125 6.34375 
Q 5.515625 14.109375 5.515625 27.296875 
Q 5.515625 40.671875 12.859375 48.328125 
Q 20.21875 56 33.015625 56 
Q 37.15625 56 41.109375 55.140625 
Q 45.0625 54.296875 48.78125 52.59375 
z
" id="DejaVuSans-99"/>
      <path d="M 9.421875 75.984375 
L 18.40625 75.984375 
L 18.40625 0 
L 9.421875 0 
z
" id="DejaVuSans-108"/>
      <path d="M 30.609375 48.390625 
Q 23.390625 48.390625 19.1875 42.75 
Q 14.984375 37.109375 14.984375 27.296875 
Q 14.984375 17.484375 19.15625 11.84375 
Q 23.34375 6.203125 30.609375 6.203125 
Q 37.796875 6.203125 41.984375 11.859375 
Q 46.1875 17.53125 46.1875 27.296875 
Q 46.1875 37.015625 41.984375 42.703125 
Q 37.796875 48.390625 30.609375 48.390625 
z
M 30.609375 56 
Q 42.328125 56 49.015625 48.375 
Q 55.71875 40.765625 55.71875 27.296875 
Q 55.71875 13.875 49.015625 6.21875 
Q 42.328125 -1.421875 30.609375 -1.421875 
Q 18.84375 -1.421875 12.171875 6.21875 
Q 5.515625 13.875 5.515625 27.296875 
Q 5.515625 40.765625 12.171875 48.375 
Q 18.84375 56 30.609375 56 
z
" id="DejaVuSans-111"/>
      <path d="M 44.28125 53.078125 
L 44.28125 44.578125 
Q 40.484375 46.53125 36.375 47.5 
Q 32.28125 48.484375 27.875 48.484375 
Q 21.1875 48.484375 17.84375 46.4375 
Q 14.5 44.390625 14.5 40.28125 
Q 14.5 37.15625 16.890625 35.375 
Q 19.28125 33.59375 26.515625 31.984375 
L 29.59375 31.296875 
Q 39.15625 29.25 43.1875 25.515625 
Q 47.21875 21.78125 47.21875 15.09375 
Q 47.21875 7.46875 41.1875 3.015625 
Q 35.15625 -1.421875 24.609375 -1.421875 
Q 20.21875 -1.421875 15.453125 -0.5625 
Q 10.6875 0.296875 5.421875 2 
L 5.421875 11.28125 
Q 10.40625 8.6875 15.234375 7.390625 
Q 20.0625 6.109375 24.8125 6.109375 
Q 31.15625 6.109375 34.5625 8.28125 
Q 37.984375 10.453125 37.984375 14.40625 
Q 37.984375 18.0625 35.515625 20.015625 
Q 33.0625 21.96875 24.703125 23.78125 
L 21.578125 24.515625 
Q 13.234375 26.265625 9.515625 29.90625 
Q 5.8125 33.546875 5.8125 39.890625 
Q 5.8125 47.609375 11.28125 51.796875 
Q 16.75 56 26.8125 56 
Q 31.78125 56 36.171875 55.265625 
Q 40.578125 54.546875 44.28125 53.078125 
z
" id="DejaVuSans-115"/>
     </defs>
     <g transform="translate(14.798438 142.106719)rotate(-90)scale(0.1 -0.1)">
      <use xlink:href="#DejaVuSans-118"/>
      <use x="59.179688" xlink:href="#DejaVuSans-105"/>
      <use x="86.962891" xlink:href="#DejaVuSans-120"/>
      <use x="146.142578" xlink:href="#DejaVuSans-95"/>
      <use x="196.142578" xlink:href="#DejaVuSans-99"/>
      <use x="251.123047" xlink:href="#DejaVuSans-108"/>
      <use x="278.90625" xlink:href="#DejaVuSans-111"/>
      <use x="340.087891" xlink:href="#DejaVuSans-115"/>
      <use x="392.1875" xlink:href="#DejaVuSans-101"/>
     </g>
    </g>
   </g>
   <g id="line2d_21">
    <path clip-path="url(#pea954e8f54)" d="M 54.83125 187.076484 
L 54.83125 141.480418 
" style="fill:none;stroke:#464646;stroke-linecap:square;stroke-width:1.5;"/>
   </g>
   <g id="line2d_22">
    <path clip-path="url(#pea954e8f54)" d="M 54.83125 180.624821 
L 54.83125 153.313676 
" style="fill:none;stroke:#464646;stroke-linecap:square;stroke-width:4.5;"/>
   </g>
   <g id="line2d_23">
    <path clip-path="url(#pea954e8f54)" d="M 82.73125 186.773911 
L 82.73125 130.255902 
" style="fill:none;stroke:#464646;stroke-linecap:square;stroke-width:1.5;"/>
   </g>
   <g id="line2d_24">
    <path clip-path="url(#pea954e8f54)" d="M 82.73125 178.945842 
L 82.73125 155.324647 
" style="fill:none;stroke:#464646;stroke-linecap:square;stroke-width:4.5;"/>
   </g>
   <g id="line2d_25">
    <path clip-path="url(#pea954e8f54)" d="M 110.63125 185.328571 
L 110.63125 143.980585 
" style="fill:none;stroke:#464646;stroke-linecap:square;stroke-width:1.5;"/>
   </g>
   <g id="line2d_26">
    <path clip-path="url(#pea954e8f54)" d="M 110.63125 176.895734 
L 110.63125 162.584994 
" style="fill:none;stroke:#464646;stroke-linecap:square;stroke-width:4.5;"/>
   </g>
   <g id="line2d_27">
    <path clip-path="url(#pea954e8f54)" d="M 138.53125 184.91681 
L 138.53125 141.215481 
" style="fill:none;stroke:#464646;stroke-linecap:square;stroke-width:1.5;"/>
   </g>
   <g id="line2d_28">
    <path clip-path="url(#pea954e8f54)" d="M 138.53125 178.60919 
L 138.53125 159.275188 
" style="fill:none;stroke:#464646;stroke-linecap:square;stroke-width:4.5;"/>
   </g>
   <g id="line2d_29">
    <path clip-path="url(#pea954e8f54)" d="M 166.43125 187.560082 
L 166.43125 145.940221 
" style="fill:none;stroke:#464646;stroke-linecap:square;stroke-width:1.5;"/>
   </g>
   <g id="line2d_30">
    <path clip-path="url(#pea954e8f54)" d="M 166.43125 179.416725 
L 166.43125 162.398443 
" style="fill:none;stroke:#464646;stroke-linecap:square;stroke-width:4.5;"/>
   </g>
   <g id="line2d_31">
    <path clip-path="url(#pea954e8f54)" d="M 194.33125 188.495565 
L 194.33125 136.43293 
" style="fill:none;stroke:#464646;stroke-linecap:square;stroke-width:1.5;"/>
   </g>
   <g id="line2d_32">
    <path clip-path="url(#pea954e8f54)" d="M 194.33125 178.229642 
L 194.33125 160.006505 
" style="fill:none;stroke:#464646;stroke-linecap:square;stroke-width:4.5;"/>
   </g>
   <g id="line2d_33">
    <path clip-path="url(#pea954e8f54)" d="M 222.23125 189.164064 
L 222.23125 146.504926 
" style="fill:none;stroke:#464646;stroke-linecap:square;stroke-width:1.5;"/>
   </g>
   <g id="line2d_34">
    <path clip-path="url(#pea954e8f54)" d="M 222.23125 181.398698 
L 222.23125 163.228977 
" style="fill:none;stroke:#464646;stroke-linecap:square;stroke-width:4.5;"/>
   </g>
   <g id="line2d_35">
    <path clip-path="url(#pea954e8f54)" d="M 250.13125 184.804752 
L 250.13125 122.714028 
" style="fill:none;stroke:#464646;stroke-linecap:square;stroke-width:1.5;"/>
   </g>
   <g id="line2d_36">
    <path clip-path="url(#pea954e8f54)" d="M 250.13125 180.880187 
L 250.13125 151.439692 
" style="fill:none;stroke:#464646;stroke-linecap:square;stroke-width:4.5;"/>
   </g>
   <g id="line2d_37">
    <path clip-path="url(#pea954e8f54)" d="M 278.03125 188.698517 
L 278.03125 114.192971 
" style="fill:none;stroke:#464646;stroke-linecap:square;stroke-width:1.5;"/>
   </g>
   <g id="line2d_38">
    <path clip-path="url(#pea954e8f54)" d="M 278.03125 180.571806 
L 278.03125 150.855298 
" style="fill:none;stroke:#464646;stroke-linecap:square;stroke-width:4.5;"/>
   </g>
   <g id="line2d_39">
    <path clip-path="url(#pea954e8f54)" d="M 305.93125 189.537159 
L 305.93125 118.477016 
" style="fill:none;stroke:#464646;stroke-linecap:square;stroke-width:1.5;"/>
   </g>
   <g id="line2d_40">
    <path clip-path="url(#pea954e8f54)" d="M 305.93125 175.799429 
L 305.93125 151.63118 
" style="fill:none;stroke:#464646;stroke-linecap:square;stroke-width:4.5;"/>
   </g>
   <g id="line2d_41">
    <path clip-path="url(#pea954e8f54)" d="M 333.83125 188.423547 
L 333.83125 130.288933 
" style="fill:none;stroke:#464646;stroke-linecap:square;stroke-width:1.5;"/>
   </g>
   <g id="line2d_42">
    <path clip-path="url(#pea954e8f54)" d="M 333.83125 178.915849 
L 333.83125 148.062148 
" style="fill:none;stroke:#464646;stroke-linecap:square;stroke-width:4.5;"/>
   </g>
   <g id="line2d_43">
    <path clip-path="url(#pea954e8f54)" d="M 361.73125 189.164064 
L 361.73125 141.010276 
" style="fill:none;stroke:#464646;stroke-linecap:square;stroke-width:1.5;"/>
   </g>
   <g id="line2d_44">
    <path clip-path="url(#pea954e8f54)" d="M 361.73125 183.239737 
L 361.73125 153.059408 
" style="fill:none;stroke:#464646;stroke-linecap:square;stroke-width:4.5;"/>
   </g>
   <g id="patch_3">
    <path d="M 40.88125 228.14 
L 40.88125 10.7 
" style="fill:none;stroke:#000000;stroke-linecap:square;stroke-linejoin:miter;stroke-width:0.8;"/>
   </g>
   <g id="patch_4">
    <path d="M 375.68125 228.14 
L 375.68125 10.7 
" style="fill:none;stroke:#000000;stroke-linecap:square;stroke-linejoin:miter;stroke-width:0.8;"/>
   </g>
   <g id="patch_5">
    <path d="M 40.88125 228.14 
L 375.68125 228.14 
" style="fill:none;stroke:#000000;stroke-linecap:square;stroke-linejoin:miter;stroke-width:0.8;"/>
   </g>
   <g id="patch_6">
    <path d="M 40.88125 10.7 
L 375.68125 10.7 
" style="fill:none;stroke:#000000;stroke-linecap:square;stroke-linejoin:miter;stroke-width:0.8;"/>
   </g>
   <g id="PathCollection_1">
    <defs>
     <path d="M 0 1.5 
C 0.397805 1.5 0.77937 1.341951 1.06066 1.06066 
C 1.341951 0.77937 1.5 0.397805 1.5 0 
C 1.5 -0.397805 1.341951 -0.77937 1.06066 -1.06066 
C 0.77937 -1.341951 0.397805 -1.5 0 -1.5 
C -0.397805 -1.5 -0.77937 -1.341951 -1.06066 -1.06066 
C -1.341951 -0.77937 -1.5 -0.397805 -1.5 0 
C -1.5 0.397805 -1.341951 0.77937 -1.06066 1.06066 
C -0.77937 1.341951 -0.397805 1.5 0 1.5 
z
" id="m1bc0068d32" style="stroke:#464646;"/>
    </defs>
    <g clip-path="url(#pea954e8f54)">
     <use style="fill:#ffffff;stroke:#464646;" x="54.83125" xlink:href="#m1bc0068d32" y="164.929049"/>
    </g>
   </g>
   <g id="PathCollection_2">
    <g clip-path="url(#pea954e8f54)">
     <use style="fill:#ffffff;stroke:#464646;" x="82.73125" xlink:href="#m1bc0068d32" y="167.279364"/>
    </g>
   </g>
   <g id="PathCollection_3">
    <g clip-path="url(#pea954e8f54)">
     <use style="fill:#ffffff;stroke:#464646;" x="110.63125" xlink:href="#m1bc0068d32" y="169.045271"/>
    </g>
   </g>
   <g id="PathCollection_4">
    <g clip-path="url(#pea954e8f54)">
     <use style="fill:#ffffff;stroke:#464646;" x="138.53125" xlink:href="#m1bc0068d32" y="172.230689"/>
    </g>
   </g>
   <g id="PathCollection_5">
    <g clip-path="url(#pea954e8f54)">
     <use style="fill:#ffffff;stroke:#464646;" x="166.43125" xlink:href="#m1bc0068d32" y="171.328601"/>
    </g>
   </g>
   <g id="PathCollection_6">
    <g clip-path="url(#pea954e8f54)">
     <use style="fill:#ffffff;stroke:#464646;" x="194.33125" xlink:href="#m1bc0068d32" y="170.7287"/>
    </g>
   </g>
   <g id="PathCollection_7">
    <g clip-path="url(#pea954e8f54)">
     <use style="fill:#ffffff;stroke:#464646;" x="222.23125" xlink:href="#m1bc0068d32" y="170.301817"/>
    </g>
   </g>
   <g id="PathCollection_8">
    <g clip-path="url(#pea954e8f54)">
     <use style="fill:#ffffff;stroke:#464646;" x="250.13125" xlink:href="#m1bc0068d32" y="171.938608"/>
    </g>
   </g>
   <g id="PathCollection_9">
    <g clip-path="url(#pea954e8f54)">
     <use style="fill:#ffffff;stroke:#464646;" x="278.03125" xlink:href="#m1bc0068d32" y="171.207662"/>
    </g>
   </g>
   <g id="PathCollection_10">
    <g clip-path="url(#pea954e8f54)">
     <use style="fill:#ffffff;stroke:#464646;" x="305.93125" xlink:href="#m1bc0068d32" y="168.344678"/>
    </g>
   </g>
   <g id="PathCollection_11">
    <g clip-path="url(#pea954e8f54)">
     <use style="fill:#ffffff;stroke:#464646;" x="333.83125" xlink:href="#m1bc0068d32" y="169.763197"/>
    </g>
   </g>
   <g id="PathCollection_12">
    <g clip-path="url(#pea954e8f54)">
     <use style="fill:#ffffff;stroke:#464646;" x="361.73125" xlink:href="#m1bc0068d32" y="168.339375"/>
    </g>
   </g>
  </g>
 </g>
 <defs>
  <clipPath id="pea954e8f54">
   <rect height="217.44" width="334.8" x="40.88125" y="10.7"/>
  </clipPath>
 </defs>
</svg>
